<?xml version="1.0" standalone="no"?>
<!DOCTYPE svg PUBLIC "-//W3C//DTD SVG 1.1//EN" "http://www.w3.org/Graphics/SVG/1.1/DTD/svg11.dtd" >
<svg xmlns="http://www.w3.org/2000/svg" xmlns:xlink="http://www.w3.org/1999/xlink" version="1.1">
<metadata>
Created by FontForge 20170731 at Sat Oct 29 01:20:00 2016
 By Aleksey,,,
Copyright (C) 2001, 2010 Hoefler &#38; Co. http://www.typography.com
</metadata>
<defs>
<font id="GothamSSm-LightItalic" horiz-adv-x="532" >
  <font-face 
    font-family="Gotham SSm Light"
    font-weight="300"
    font-style="italic"
    font-stretch="normal"
    units-per-em="1000"
    panose-1="0 0 0 0 0 0 0 0 0 0"
    ascent="800"
    descent="-200"
    x-height="534"
    cap-height="728"
    bbox="-122 -244 1248 994"
    underline-thickness="50"
    underline-position="-200"
    slope="-15"
    unicode-range="U+0020-2122"
  />
<missing-glyph horiz-adv-x="500" 
d="M0 800h500v-1000h-500v1000zM222 300l-172 376v-752zM429 -150l-179 390l-179 -390h358zM429 750h-358l179 -390zM450 676l-172 -376l172 -376v752z" />
    <glyph glyph-name=".notdef" horiz-adv-x="500" 
d="M0 800h500v-1000h-500v1000zM222 300l-172 376v-752zM429 -150l-179 390l-179 -390h358zM429 750h-358l179 -390zM450 676l-172 -376l172 -376v752z" />
    <glyph glyph-name=".null" horiz-adv-x="0" 
 />
    <glyph glyph-name="nonmarkingreturn" horiz-adv-x="324" 
 />
    <glyph glyph-name="space" unicode=" " horiz-adv-x="324" 
 />
    <glyph glyph-name="exclam" unicode="!" horiz-adv-x="285" 
d="M209 663l17 65h79l-17 -65l-145 -464h-38zM56 100h83l-27 -100h-83z" />
    <glyph glyph-name="quotedbl" unicode="&#x22;" horiz-adv-x="457" 
d="M206 728h82v-5l-139 -269h-38zM403 728h82v-5l-139 -269h-38z" />
    <glyph glyph-name="numbersign" unicode="#" horiz-adv-x="719" 
d="M158 189h-119l16 61h124l82 232h-132l16 61h137l64 185h63l-64 -185h206l64 185h63l-64 -185h119l-16 -61h-125l-81 -232h132l-16 -61h-137l-66 -189h-63l66 189h-206l-65 -189h-63zM448 250l81 232h-205l-81 -232h205z" />
    <glyph glyph-name="dollar" unicode="$" horiz-adv-x="658" 
d="M507 788l-20 -70q57 -11 100 -36t77 -57l-48 -48q-30 29 -67 50t-83 31l-72 -264q92 -34 135 -76.5t43 -108.5q0 -45 -19.5 -83.5t-55 -66.5t-85 -43.5t-109.5 -15.5h-16l-28 -102h-60l30 108q-72 11 -129 43t-96 79l51 44q36 -42 84 -69t111 -37l76 280q-48 18 -82.5 36
t-57 39.5t-33.5 47.5t-11 59q0 43 19 79.5t52 63.5t78.5 42t98.5 15q11 0 20.5 -0.5t19.5 -1.5l17 62h60zM213 535q0 -21 7.5 -38t23 -31.5t40.5 -27.5t61 -26l69 253q-8 0 -15 0.5t-15 0.5q-39 0 -70.5 -10t-54 -28t-34.5 -42t-12 -51zM501 202q0 40 -27.5 68.5t-97.5 57.5
l-73 -266h11q43 0 77.5 10.5t59 29.5t37.5 44.5t13 55.5z" />
    <glyph glyph-name="percent" unicode="%" horiz-adv-x="875" 
d="M246 360q-32 0 -59 11.5t-46 32t-29.5 47.5t-10.5 59q0 49 19 93.5t51 76.5q26 26 59 41t70 15q33 0 59.5 -11.5t46 -32t30 -48t10.5 -58.5q0 -49 -19 -93t-51 -77q-26 -26 -59 -41t-71 -15zM251 411q23 0 44 10.5t38 27.5q25 25 39.5 60t14.5 72q0 47 -23.5 75.5
t-67.5 28.5q-23 0 -44 -10t-38 -27q-25 -26 -39.5 -61t-14.5 -72q0 -47 23.5 -75.5t67.5 -28.5zM427 364l354 364h73l-354 -364l-354 -364h-73zM626 -8q-32 0 -59 11.5t-46 32t-29.5 47.5t-10.5 59q0 49 19 93t51 77q26 26 59 41t70 15q33 0 59.5 -11.5t46 -32t30 -48
t10.5 -58.5q0 -49 -19 -93.5t-51 -76.5q-26 -26 -59 -41t-71 -15zM631 43q23 0 44 10t38 27q25 26 39.5 61t14.5 72q0 47 -23.5 75.5t-67.5 28.5q-23 0 -44 -10.5t-38 -27.5q-25 -25 -39.5 -60t-14.5 -72q0 -47 23.5 -75.5t67.5 -28.5z" />
    <glyph glyph-name="ampersand" unicode="&#x26;" horiz-adv-x="731" 
d="M683 327q-65 -107 -129 -180l90 -127l-52 -35l-84 118q-59 -56 -120 -84.5t-140 -28.5q-44 0 -82.5 12.5t-67 36t-45 57.5t-16.5 78q0 84 61 147.5t186 96.5q-22 34 -34.5 68t-12.5 68q0 40 15.5 74t42.5 59t63 39t77 14q39 0 71.5 -11t55.5 -31.5t35.5 -49t12.5 -62.5
q0 -29 -11 -57t-37.5 -53.5t-71 -48.5t-111.5 -42l139 -193q30 34 59.5 75t56.5 90zM256 50q60 0 113 25t105 73l-158 224q-110 -28 -160 -79.5t-50 -112.5q0 -60 40.5 -95t109.5 -35zM303 555q0 -31 10.5 -59t34.5 -65q57 15 94.5 33t60 37.5t31.5 40t9 41.5q0 44 -30 72
t-81 28q-26 0 -49.5 -10t-41 -27.5t-28 -40.5t-10.5 -50z" />
    <glyph glyph-name="quotesingle" unicode="'" horiz-adv-x="260" 
d="M206 728h82v-5l-139 -269h-38z" />
    <glyph glyph-name="parenleft" unicode="(" horiz-adv-x="462" 
d="M285 -146q-37 33 -70 72t-58 85t-39.5 99t-14.5 115q0 97 37.5 188t115.5 170q49 48 113 89.5t145 74.5l24 -51q-72 -31 -128.5 -68t-98.5 -79q-73 -74 -105.5 -156.5t-32.5 -165.5q0 -56 12 -102.5t32.5 -87t48 -75.5t59.5 -67z" />
    <glyph glyph-name="parenright" unicode=")" horiz-adv-x="462" 
d="M194 748q37 -33 70.5 -72t58 -85t39 -99.5t14.5 -114.5q0 -96 -37.5 -187.5t-115.5 -169.5q-49 -49 -113 -90.5t-145 -74.5l-24 51q72 31 128.5 68.5t98.5 79.5q73 73 105.5 155.5t32.5 165.5q0 55 -12 102t-32.5 87.5t-48 75.5t-58.5 68z" />
    <glyph glyph-name="asterisk" unicode="*" horiz-adv-x="459" 
d="M239 428l45 125l-125 -45l-14 49l133 24l-103 86l36 36l86 -101l24 129l48 -12l-44 -125l125 45l14 -49l-133 -24l103 -86l-36 -36l-86 101l-24 -129z" />
    <glyph glyph-name="plus" unicode="+" horiz-adv-x="660" 
d="M315 334h-220l17 64h220l59 218h66l-58 -218h220l-17 -64h-221l-58 -218h-67z" />
    <glyph glyph-name="comma" unicode="," horiz-adv-x="266" 
d="M-38 -88q42 12 63.5 34t27.5 54h-34l28 100h83l-23 -86q-9 -31 -20.5 -53.5t-28 -38t-38 -25.5t-50.5 -16z" />
    <glyph glyph-name="hyphen" unicode="-" horiz-adv-x="438" 
d="M98 347h285l-20 -72h-285z" />
    <glyph glyph-name="period" unicode="." horiz-adv-x="266" 
d="M47 100h83l-27 -100h-84z" />
    <glyph glyph-name="slash" unicode="/" horiz-adv-x="537" 
d="M617 830h70l-739 -963h-70z" />
    <glyph glyph-name="zero" unicode="0" horiz-adv-x="753" 
d="M465 740q61 0 107.5 -20.5t78 -57.5t48 -88t16.5 -111q0 -52 -10 -104t-29.5 -101t-47 -92.5t-62.5 -77.5q-46 -47 -104 -73.5t-124 -26.5q-60 0 -107 20.5t-78.5 57.5t-48 88t-16.5 111q0 52 10.5 104t29.5 101t46.5 92t62.5 78q47 47 104.5 73.5t123.5 26.5zM343 51
q47 0 89.5 20.5t78.5 57.5q30 30 54.5 68t41.5 81.5t26.5 91t9.5 94.5q0 45 -11.5 84t-35 67.5t-57.5 45t-79 16.5q-46 0 -88.5 -20.5t-78.5 -57.5q-30 -30 -54.5 -68t-41.5 -81.5t-26.5 -91t-9.5 -94.5q0 -45 11.5 -84t34.5 -67.5t57 -45t79 -16.5z" />
    <glyph glyph-name="one" unicode="1" horiz-adv-x="375" 
d="M279 655l-150 -45l-2 62l190 61h52l-196 -733h-70z" />
    <glyph glyph-name="two" unicode="2" horiz-adv-x="628" 
d="M-2 54l417 325q62 48 93.5 89t31.5 89q0 51 -38.5 84.5t-107.5 33.5q-63 0 -113 -30t-90 -72l-47 44q48 51 110 86t143 35q48 0 87.5 -13t68 -36t44 -56t15.5 -72q0 -33 -10 -61.5t-29.5 -55.5t-48 -53.5t-65.5 -54.5l-347 -271h403l-17 -65h-513z" />
    <glyph glyph-name="three" unicode="3" horiz-adv-x="642" 
d="M265 -12q-95 0 -158 38.5t-95 102.5l56 35q29 -54 77 -83.5t123 -29.5q45 0 84 12.5t67 35t44 54t16 68.5q0 66 -53 98.5t-141 32.5h-33l-10 38l307 274h-372l18 64h471l-14 -51l-306 -272q42 -3 79.5 -15t65.5 -34.5t44.5 -54.5t16.5 -74q0 -45 -17 -84t-48 -70
q-40 -40 -98 -62.5t-124 -22.5z" />
    <glyph glyph-name="four" unicode="4" horiz-adv-x="685" 
d="M428 175h-385l-10 52l547 506h66l-134 -499h115l-16 -59h-115l-47 -175h-68zM444 234l106 394l-424 -394h318z" />
    <glyph glyph-name="five" unicode="5" horiz-adv-x="638" 
d="M268 -12q-46 0 -84 10t-68.5 28t-54.5 41.5t-42 50.5l55 38q35 -50 82.5 -78.5t115.5 -28.5q51 0 92 16t70 42t44.5 60.5t15.5 71.5q0 35 -12.5 62.5t-35 46t-53.5 28.5t-67 10t-76.5 -10t-80.5 -32l-42 33l115 351h401l-18 -65h-338l-83 -246q11 6 27.5 11.5t35 9.5
t37 6.5t33.5 2.5q52 0 94.5 -14t72.5 -40.5t46.5 -64t16.5 -84.5q0 -48 -18.5 -91.5t-53.5 -78.5q-40 -39 -97.5 -62.5t-129.5 -23.5z" />
    <glyph glyph-name="six" unicode="6" horiz-adv-x="678" 
d="M335 -12q-54 0 -99 17.5t-76 48.5q-34 34 -52.5 82.5t-18.5 118.5q0 119 40.5 218t104.5 163q104 104 237 104q72 0 124.5 -26t89.5 -68l-47 -47q-32 35 -73 56.5t-98 21.5q-101 0 -182 -81q-23 -23 -43 -52t-35.5 -62t-26.5 -68.5t-14 -71.5q16 22 38 43t49.5 36.5
t60 25t70.5 9.5q54 0 97 -17t72.5 -46t45.5 -67t16 -81q0 -50 -19 -94.5t-54 -79.5q-39 -39 -91 -61t-116 -22zM338 48q46 0 84 16.5t66 44.5q26 26 41 60t15 72q0 28 -10.5 55.5t-31.5 49t-53 35t-75 13.5q-51 0 -90 -17t-67 -45q-26 -26 -39.5 -57.5t-13.5 -63.5
q0 -37 11.5 -65t32.5 -50q26 -25 59 -36.5t71 -11.5z" />
    <glyph glyph-name="seven" unicode="7" horiz-adv-x="618" 
d="M562 663h-406l18 65h489l-15 -52l-489 -676h-81z" />
    <glyph glyph-name="eight" unicode="8" horiz-adv-x="682" 
d="M314 -10q-60 0 -109 15t-84.5 41t-55 61t-19.5 75q0 44 17 78.5t46 60t69 42t85 24.5q-45 17 -76 56.5t-31 96.5q0 41 19.5 77t54.5 63t83 42.5t104 15.5q53 0 98 -14t77.5 -38.5t50.5 -59t18 -75.5q0 -38 -14.5 -69.5t-39.5 -55.5t-58.5 -40t-71.5 -23q24 -9 46.5 -24
t40 -35.5t28 -46.5t10.5 -57q0 -45 -21.5 -83.5t-60 -66.5t-91.5 -44t-115 -16zM317 50q48 0 87.5 11.5t67.5 31.5t43.5 48.5t15.5 61.5q0 28 -14 53.5t-39.5 44.5t-62 30.5t-82.5 11.5q-50 0 -90 -12.5t-68 -33.5t-43 -48.5t-15 -58.5t14 -56.5t40.5 -44t63.5 -29t82 -10.5
zM396 401q48 0 84 12.5t60.5 32.5t37 46t12.5 53q0 29 -12.5 53t-35.5 41.5t-55 27.5t-71 10q-43 0 -78 -11t-60 -30t-39 -45.5t-14 -56.5q0 -28 12.5 -52.5t35 -42.5t54 -28t69.5 -10z" />
    <glyph glyph-name="nine" unicode="9" horiz-adv-x="678" 
d="M259 -12q-70 0 -125.5 27.5t-96.5 73.5l48 46q36 -38 78.5 -61t99.5 -23q99 0 180 81q23 22 43 51t35.5 61.5t26 67.5t14.5 70q-15 -21 -36 -42t-48 -38t-61 -27.5t-75 -10.5q-54 0 -96.5 17t-72.5 46.5t-45.5 68.5t-15.5 83q0 51 20 97t56 81q39 39 91 61t115 22
q54 0 98.5 -17.5t75.5 -48.5q35 -34 53.5 -83t18.5 -121q0 -59 -11 -113t-30.5 -102.5t-46 -89.5t-58.5 -73q-51 -51 -109.5 -77.5t-125.5 -26.5zM356 326q47 0 86 17t67 45q26 26 41 60t15 71q0 67 -45 112q-26 26 -58.5 37.5t-70.5 11.5q-46 0 -83.5 -16t-65.5 -44
q-27 -27 -42 -62.5t-16 -75.5q0 -29 10 -57t31 -50t53.5 -35.5t77.5 -13.5z" />
    <glyph glyph-name="colon" unicode=":" horiz-adv-x="275" 
d="M51 100h84l-27 -100h-84zM167 534h84l-27 -100h-84z" />
    <glyph glyph-name="semicolon" unicode=";" horiz-adv-x="275" 
d="M-34 -88q43 12 64.5 34t26.5 54h-33l27 100h84l-24 -86q-9 -31 -20.5 -53.5t-28 -38t-38 -25.5t-50.5 -16zM167 534h84l-27 -100h-84z" />
    <glyph glyph-name="less" unicode="&#x3c;" horiz-adv-x="660" 
d="M90 338l15 57l552 246l-19 -76l-464 -203l354 -206l-18 -64z" />
    <glyph glyph-name="equal" unicode="=" horiz-adv-x="660" 
d="M95 280h476l-19 -67h-475zM159 519h476l-18 -66h-475z" />
    <glyph glyph-name="greater" unicode="&#x3e;" horiz-adv-x="660" 
d="M74 167l463 204l-353 205l18 65l420 -246l-16 -57l-552 -246z" />
    <glyph glyph-name="question" unicode="?" horiz-adv-x="569" 
d="M235 367l7 6q56 4 102.5 17.5t79.5 36t51.5 53.5t18.5 70q0 30 -11.5 53t-31 39t-46.5 24t-58 8q-60 0 -110.5 -26t-85.5 -61l-41 46q44 44 105 74t139 30q49 0 88.5 -14t67 -38.5t42 -58t14.5 -72.5q0 -51 -21.5 -91t-58.5 -69t-87 -47.5t-107 -26.5l-43 -121h-44z
M160 100h83l-27 -100h-83z" />
    <glyph glyph-name="at" unicode="@" horiz-adv-x="1031" 
d="M509 -167q-99 0 -179.5 29.5t-137.5 83t-88 128.5t-31 167q0 100 40 191t109.5 159.5t162.5 109t198 40.5q97 0 173 -28.5t128.5 -78t80 -116.5t27.5 -143q0 -75 -20.5 -131.5t-52.5 -94t-71 -56t-75 -18.5q-56 0 -88.5 27t-40.5 73q-40 -50 -87 -76t-102 -26
q-34 0 -64 12t-52 34t-35 54t-13 73q0 58 22 108.5t57.5 88t81 59t93.5 21.5q64 0 102 -32t54 -74l30 96l59 -16l-78 -251q-9 -30 -9 -52q0 -35 20 -57t59 -22q26 0 56.5 15.5t56 48t42.5 81.5t17 115q0 69 -25 129.5t-73 105t-117 70.5t-156 26q-65 0 -125.5 -17t-113 -48
t-95.5 -74.5t-74 -95t-48 -110t-17 -120.5q0 -84 28.5 -152.5t81 -117.5t126 -76t163.5 -27q59 0 110.5 11.5t104.5 35.5l15 -31q-57 -26 -112 -38.5t-118 -12.5zM471 130q37 0 74 17.5t65.5 46.5t46.5 66.5t18 77.5q0 56 -34 92t-93 36q-38 0 -72.5 -17.5t-60 -47
t-40.5 -68.5t-15 -83q0 -57 31.5 -88.5t79.5 -31.5z" />
    <glyph glyph-name="A" unicode="A" horiz-adv-x="802" 
d="M499 733h67l138 -733h-71l-35 198h-412l-142 -198h-77zM586 261l-71 394l-284 -394h355z" />
    <glyph glyph-name="A" unicode="&#x1fa;" horiz-adv-x="802" 
d="M499 733h67l138 -733h-71l-35 198h-412l-142 -198h-77zM586 261l-71 394l-284 -394h355z" />
    <glyph glyph-name="A" unicode="&#x104;" horiz-adv-x="802" 
d="M499 733h67l138 -733h-71l-35 198h-412l-142 -198h-77zM586 261l-71 394l-284 -394h355z" />
    <glyph glyph-name="A" unicode="&#x102;" horiz-adv-x="802" 
d="M499 733h67l138 -733h-71l-35 198h-412l-142 -198h-77zM586 261l-71 394l-284 -394h355z" />
    <glyph glyph-name="A" unicode="&#x100;" horiz-adv-x="802" 
d="M499 733h67l138 -733h-71l-35 198h-412l-142 -198h-77zM586 261l-71 394l-284 -394h355z" />
    <glyph glyph-name="B" unicode="B" horiz-adv-x="758" 
d="M235 728h272q104 0 163 -44.5t59 -122.5q0 -40 -14.5 -72.5t-40 -57t-59.5 -41t-73 -23.5q28 -8 52.5 -21t42.5 -31.5t28.5 -43.5t10.5 -56q0 -47 -21 -86.5t-60 -68t-95.5 -44.5t-127.5 -16h-332zM378 63q52 0 94 10.5t71.5 30.5t45.5 48.5t16 64.5q0 30 -13.5 52
t-37 37t-56 22.5t-71.5 7.5h-228l-73 -273h252zM431 398q52 0 93.5 11t71 31.5t45.5 48.5t16 63q0 56 -41 84.5t-116 28.5h-213l-71 -267h215z" />
    <glyph glyph-name="C" unicode="C" horiz-adv-x="778" 
d="M402 -13q-63 0 -118 20.5t-96.5 59t-65.5 94t-24 124.5q0 94 37 179t101 149q59 58 135 92.5t163 34.5q50 0 92 -11.5t76 -32.5t59.5 -49.5t43.5 -62.5l-60 -35q-17 29 -37.5 53t-47 40.5t-59 25.5t-73.5 9q-69 0 -129.5 -28t-107.5 -75q-56 -56 -88.5 -130.5
t-32.5 -155.5q0 -55 18 -99t49.5 -74.5t75 -47t94.5 -16.5q38 0 70.5 7.5t61 21t54 32.5t49.5 43l46 -45q-25 -26 -54.5 -48.5t-64.5 -39t-76.5 -26t-90.5 -9.5z" />
    <glyph glyph-name="C" unicode="&#x10c;" horiz-adv-x="778" 
d="M402 -13q-63 0 -118 20.5t-96.5 59t-65.5 94t-24 124.5q0 94 37 179t101 149q59 58 135 92.5t163 34.5q50 0 92 -11.5t76 -32.5t59.5 -49.5t43.5 -62.5l-60 -35q-17 29 -37.5 53t-47 40.5t-59 25.5t-73.5 9q-69 0 -129.5 -28t-107.5 -75q-56 -56 -88.5 -130.5
t-32.5 -155.5q0 -55 18 -99t49.5 -74.5t75 -47t94.5 -16.5q38 0 70.5 7.5t61 21t54 32.5t49.5 43l46 -45q-25 -26 -54.5 -48.5t-64.5 -39t-76.5 -26t-90.5 -9.5z" />
    <glyph glyph-name="C" unicode="&#x10a;" horiz-adv-x="778" 
d="M402 -13q-63 0 -118 20.5t-96.5 59t-65.5 94t-24 124.5q0 94 37 179t101 149q59 58 135 92.5t163 34.5q50 0 92 -11.5t76 -32.5t59.5 -49.5t43.5 -62.5l-60 -35q-17 29 -37.5 53t-47 40.5t-59 25.5t-73.5 9q-69 0 -129.5 -28t-107.5 -75q-56 -56 -88.5 -130.5
t-32.5 -155.5q0 -55 18 -99t49.5 -74.5t75 -47t94.5 -16.5q38 0 70.5 7.5t61 21t54 32.5t49.5 43l46 -45q-25 -26 -54.5 -48.5t-64.5 -39t-76.5 -26t-90.5 -9.5z" />
    <glyph glyph-name="C" unicode="&#x106;" horiz-adv-x="778" 
d="M402 -13q-63 0 -118 20.5t-96.5 59t-65.5 94t-24 124.5q0 94 37 179t101 149q59 58 135 92.5t163 34.5q50 0 92 -11.5t76 -32.5t59.5 -49.5t43.5 -62.5l-60 -35q-17 29 -37.5 53t-47 40.5t-59 25.5t-73.5 9q-69 0 -129.5 -28t-107.5 -75q-56 -56 -88.5 -130.5
t-32.5 -155.5q0 -55 18 -99t49.5 -74.5t75 -47t94.5 -16.5q38 0 70.5 7.5t61 21t54 32.5t49.5 43l46 -45q-25 -26 -54.5 -48.5t-64.5 -39t-76.5 -26t-90.5 -9.5z" />
    <glyph glyph-name="D" unicode="D" horiz-adv-x="815" 
d="M235 728h171q88 0 161.5 -24.5t121.5 -72.5q38 -39 59 -90.5t21 -118.5q0 -84 -29.5 -155.5t-84.5 -127.5q-66 -66 -161.5 -102.5t-210.5 -36.5h-243zM632 586q-38 38 -97 58t-134 20h-113l-161 -600h165q95 0 173.5 31t136.5 88q45 46 69.5 105.5t24.5 129.5
q0 107 -64 168z" />
    <glyph glyph-name="D" unicode="&#x110;" horiz-adv-x="815" 
d="M235 728h171q88 0 161.5 -24.5t121.5 -72.5q38 -39 59 -90.5t21 -118.5q0 -84 -29.5 -155.5t-84.5 -127.5q-66 -66 -161.5 -102.5t-210.5 -36.5h-243zM632 586q-38 38 -97 58t-134 20h-113l-161 -600h165q95 0 173.5 31t136.5 88q45 46 69.5 105.5t24.5 129.5
q0 107 -64 168z" />
    <glyph glyph-name="D" unicode="&#x10e;" horiz-adv-x="815" 
d="M235 728h171q88 0 161.5 -24.5t121.5 -72.5q38 -39 59 -90.5t21 -118.5q0 -84 -29.5 -155.5t-84.5 -127.5q-66 -66 -161.5 -102.5t-210.5 -36.5h-243zM632 586q-38 38 -97 58t-134 20h-113l-161 -600h165q95 0 173.5 31t136.5 88q45 46 69.5 105.5t24.5 129.5
q0 107 -64 168z" />
    <glyph glyph-name="E" unicode="E" horiz-adv-x="689" 
d="M235 728h518l-18 -64h-447l-72 -265h401l-17 -64h-401l-72 -271h453l-18 -64h-522z" />
    <glyph glyph-name="F" unicode="F" horiz-adv-x="695" 
d="M235 728h519l-17 -64h-449l-75 -277h403l-18 -64h-402l-86 -323h-70z" />
    <glyph glyph-name="G" unicode="G" horiz-adv-x="829" 
d="M418 -13q-67 0 -125.5 21t-101.5 61t-67.5 97t-24.5 129q0 88 36 169.5t100 145.5q59 59 137.5 94.5t172.5 35.5q56 0 99 -11t75.5 -30t56 -43t40.5 -49l-54 -40q-16 23 -36 43t-46 35t-60.5 23.5t-80.5 8.5q-75 0 -138.5 -29t-112.5 -78q-54 -54 -85 -125.5t-31 -147.5
q0 -58 18.5 -104t51.5 -77.5t79 -48.5t101 -17q63 0 112 15.5t86 39.5l62 216h-230l17 63h298l-91 -321q-58 -37 -120.5 -56.5t-137.5 -19.5z" />
    <glyph glyph-name="G" unicode="&#x122;" horiz-adv-x="829" 
d="M418 -13q-67 0 -125.5 21t-101.5 61t-67.5 97t-24.5 129q0 88 36 169.5t100 145.5q59 59 137.5 94.5t172.5 35.5q56 0 99 -11t75.5 -30t56 -43t40.5 -49l-54 -40q-16 23 -36 43t-46 35t-60.5 23.5t-80.5 8.5q-75 0 -138.5 -29t-112.5 -78q-54 -54 -85 -125.5t-31 -147.5
q0 -58 18.5 -104t51.5 -77.5t79 -48.5t101 -17q63 0 112 15.5t86 39.5l62 216h-230l17 63h298l-91 -321q-58 -37 -120.5 -56.5t-137.5 -19.5z" />
    <glyph glyph-name="G" unicode="&#x120;" horiz-adv-x="829" 
d="M418 -13q-67 0 -125.5 21t-101.5 61t-67.5 97t-24.5 129q0 88 36 169.5t100 145.5q59 59 137.5 94.5t172.5 35.5q56 0 99 -11t75.5 -30t56 -43t40.5 -49l-54 -40q-16 23 -36 43t-46 35t-60.5 23.5t-80.5 8.5q-75 0 -138.5 -29t-112.5 -78q-54 -54 -85 -125.5t-31 -147.5
q0 -58 18.5 -104t51.5 -77.5t79 -48.5t101 -17q63 0 112 15.5t86 39.5l62 216h-230l17 63h298l-91 -321q-58 -37 -120.5 -56.5t-137.5 -19.5z" />
    <glyph glyph-name="G" unicode="&#x11e;" horiz-adv-x="829" 
d="M418 -13q-67 0 -125.5 21t-101.5 61t-67.5 97t-24.5 129q0 88 36 169.5t100 145.5q59 59 137.5 94.5t172.5 35.5q56 0 99 -11t75.5 -30t56 -43t40.5 -49l-54 -40q-16 23 -36 43t-46 35t-60.5 23.5t-80.5 8.5q-75 0 -138.5 -29t-112.5 -78q-54 -54 -85 -125.5t-31 -147.5
q0 -58 18.5 -104t51.5 -77.5t79 -48.5t101 -17q63 0 112 15.5t86 39.5l62 216h-230l17 63h298l-91 -321q-58 -37 -120.5 -56.5t-137.5 -19.5z" />
    <glyph glyph-name="H" unicode="H" horiz-adv-x="798" 
d="M235 728h70l-88 -330h435l89 330h69l-195 -728h-70l90 334h-436l-89 -334h-70z" />
    <glyph glyph-name="I" unicode="I" horiz-adv-x="307" 
d="M242 728h70l-195 -728h-70z" />
    <glyph glyph-name="J" unicode="J" horiz-adv-x="586" 
d="M209 -10q-44 0 -79 12t-61.5 33.5t-44.5 51t-29 63.5l58 29q22 -63 58.5 -94.5t96.5 -31.5q38 0 69.5 13.5t57.5 39.5t45 64t33 93l125 465h71l-128 -477q-17 -66 -40 -111t-58 -80t-80.5 -52.5t-93.5 -17.5z" />
    <glyph glyph-name="K" unicode="K" horiz-adv-x="757" 
d="M235 728h70l-121 -451l549 451h101l-397 -322l213 -406h-79l-191 365l-221 -181l-49 -184h-70z" />
    <glyph glyph-name="K" unicode="&#x136;" horiz-adv-x="757" 
d="M235 728h70l-121 -451l549 451h101l-397 -322l213 -406h-79l-191 365l-221 -181l-49 -184h-70z" />
    <glyph glyph-name="L" unicode="L" horiz-adv-x="640" 
d="M235 728h70l-178 -664h418l-18 -64h-487z" />
    <glyph glyph-name="L" unicode="&#x13f;" horiz-adv-x="640" 
d="M235 728h70l-178 -664h418l-18 -64h-487z" />
    <glyph glyph-name="L" unicode="&#x13d;" horiz-adv-x="640" 
d="M235 728h70l-178 -664h418l-18 -64h-487z" />
    <glyph glyph-name="L" unicode="&#x13b;" horiz-adv-x="640" 
d="M235 728h70l-178 -664h418l-18 -64h-487z" />
    <glyph glyph-name="L" unicode="&#x139;" horiz-adv-x="640" 
d="M235 728h70l-178 -664h418l-18 -64h-487z" />
    <glyph glyph-name="M" unicode="M" horiz-adv-x="915" 
d="M235 728h63l166 -412l387 412h76l-196 -728h-69l163 609l-383 -403h-5l-166 402l-164 -608h-67z" />
    <glyph glyph-name="N" unicode="N" horiz-adv-x="829" 
d="M235 728h65l310 -611l165 611h68l-196 -728h-54l-318 625l-167 -625h-68z" />
    <glyph glyph-name="O" unicode="O" horiz-adv-x="890" 
d="M523 740q70 0 128.5 -24t100.5 -66.5t65 -100t23 -123.5q0 -89 -35.5 -171.5t-97.5 -144.5q-57 -57 -130.5 -90t-158.5 -33q-70 0 -128 24t-100 66.5t-65.5 100t-23.5 123.5q0 89 36 171.5t98 144.5q57 57 130 90t158 33zM421 50q69 0 128 27.5t104 72.5q54 54 84 126
t30 148q0 54 -17.5 100t-50 80t-78 53.5t-101.5 19.5q-69 0 -127.5 -27.5t-104.5 -72.5q-54 -54 -84 -126t-30 -148q0 -54 17.5 -100t49.5 -80t78 -53.5t102 -19.5z" />
    <glyph glyph-name="O" unicode="&#x1fe;" horiz-adv-x="890" 
d="M523 740q70 0 128.5 -24t100.5 -66.5t65 -100t23 -123.5q0 -89 -35.5 -171.5t-97.5 -144.5q-57 -57 -130.5 -90t-158.5 -33q-70 0 -128 24t-100 66.5t-65.5 100t-23.5 123.5q0 89 36 171.5t98 144.5q57 57 130 90t158 33zM421 50q69 0 128 27.5t104 72.5q54 54 84 126
t30 148q0 54 -17.5 100t-50 80t-78 53.5t-101.5 19.5q-69 0 -127.5 -27.5t-104.5 -72.5q-54 -54 -84 -126t-30 -148q0 -54 17.5 -100t49.5 -80t78 -53.5t102 -19.5z" />
    <glyph glyph-name="O" unicode="&#x150;" horiz-adv-x="890" 
d="M523 740q70 0 128.5 -24t100.5 -66.5t65 -100t23 -123.5q0 -89 -35.5 -171.5t-97.5 -144.5q-57 -57 -130.5 -90t-158.5 -33q-70 0 -128 24t-100 66.5t-65.5 100t-23.5 123.5q0 89 36 171.5t98 144.5q57 57 130 90t158 33zM421 50q69 0 128 27.5t104 72.5q54 54 84 126
t30 148q0 54 -17.5 100t-50 80t-78 53.5t-101.5 19.5q-69 0 -127.5 -27.5t-104.5 -72.5q-54 -54 -84 -126t-30 -148q0 -54 17.5 -100t49.5 -80t78 -53.5t102 -19.5z" />
    <glyph glyph-name="O" unicode="&#x14e;" horiz-adv-x="890" 
d="M523 740q70 0 128.5 -24t100.5 -66.5t65 -100t23 -123.5q0 -89 -35.5 -171.5t-97.5 -144.5q-57 -57 -130.5 -90t-158.5 -33q-70 0 -128 24t-100 66.5t-65.5 100t-23.5 123.5q0 89 36 171.5t98 144.5q57 57 130 90t158 33zM421 50q69 0 128 27.5t104 72.5q54 54 84 126
t30 148q0 54 -17.5 100t-50 80t-78 53.5t-101.5 19.5q-69 0 -127.5 -27.5t-104.5 -72.5q-54 -54 -84 -126t-30 -148q0 -54 17.5 -100t49.5 -80t78 -53.5t102 -19.5z" />
    <glyph glyph-name="O" unicode="&#x14c;" horiz-adv-x="890" 
d="M523 740q70 0 128.5 -24t100.5 -66.5t65 -100t23 -123.5q0 -89 -35.5 -171.5t-97.5 -144.5q-57 -57 -130.5 -90t-158.5 -33q-70 0 -128 24t-100 66.5t-65.5 100t-23.5 123.5q0 89 36 171.5t98 144.5q57 57 130 90t158 33zM421 50q69 0 128 27.5t104 72.5q54 54 84 126
t30 148q0 54 -17.5 100t-50 80t-78 53.5t-101.5 19.5q-69 0 -127.5 -27.5t-104.5 -72.5q-54 -54 -84 -126t-30 -148q0 -54 17.5 -100t49.5 -80t78 -53.5t102 -19.5z" />
    <glyph glyph-name="P" unicode="P" horiz-adv-x="704" 
d="M235 728h228q67 0 118.5 -16.5t85.5 -50.5q51 -50 51 -133q0 -102 -66 -168q-47 -47 -121.5 -71t-171.5 -24h-178l-71 -265h-70zM612 616q-50 48 -151 48h-173l-90 -337h164q82 0 142 19t95 54q48 48 48 124q0 56 -35 92z" />
    <glyph glyph-name="Q" unicode="Q" horiz-adv-x="890" 
d="M523 740q70 0 128.5 -24t100.5 -66.5t65 -100t23 -123.5q0 -88 -37.5 -174.5t-109.5 -153.5l75 -85l-54 -41l-70 86q-49 -34 -106 -52.5t-120 -18.5q-70 0 -128 24t-100 66.5t-65.5 100t-23.5 123.5q0 89 36 171.5t98 144.5q57 57 130 90t158 33zM421 50q51 0 96.5 15.5
t84.5 42.5l-117 135l54 42l111 -138q57 55 87 128t30 149q0 54 -17.5 100t-50 80t-78 53.5t-101.5 19.5q-69 0 -127.5 -27.5t-104.5 -72.5q-54 -54 -84 -126t-30 -148q0 -54 17.5 -100t49.5 -80t78 -53.5t102 -19.5z" />
    <glyph glyph-name="R" unicode="R" horiz-adv-x="756" 
d="M398 291h-24h-186l-78 -291h-70l195 728h262q135 0 201 -66q23 -23 35 -54.5t12 -67.5q0 -47 -17 -86t-48 -69q-39 -39 -94.5 -59t-112.5 -28l155 -298h-81zM411 354q77 0 131 19t86 51q46 46 46 111q0 51 -31 82q-23 23 -59 35t-90 12h-206l-84 -310h207z" />
    <glyph glyph-name="R" unicode="&#x158;" horiz-adv-x="756" 
d="M398 291h-24h-186l-78 -291h-70l195 728h262q135 0 201 -66q23 -23 35 -54.5t12 -67.5q0 -47 -17 -86t-48 -69q-39 -39 -94.5 -59t-112.5 -28l155 -298h-81zM411 354q77 0 131 19t86 51q46 46 46 111q0 51 -31 82q-23 23 -59 35t-90 12h-206l-84 -310h207z" />
    <glyph glyph-name="R" unicode="&#x156;" horiz-adv-x="756" 
d="M398 291h-24h-186l-78 -291h-70l195 728h262q135 0 201 -66q23 -23 35 -54.5t12 -67.5q0 -47 -17 -86t-48 -69q-39 -39 -94.5 -59t-112.5 -28l155 -298h-81zM411 354q77 0 131 19t86 51q46 46 46 111q0 51 -31 82q-23 23 -59 35t-90 12h-206l-84 -310h207z" />
    <glyph glyph-name="R" unicode="&#x154;" horiz-adv-x="756" 
d="M398 291h-24h-186l-78 -291h-70l195 728h262q135 0 201 -66q23 -23 35 -54.5t12 -67.5q0 -47 -17 -86t-48 -69q-39 -39 -94.5 -59t-112.5 -28l155 -298h-81zM411 354q77 0 131 19t86 51q46 46 46 111q0 51 -31 82q-23 23 -59 35t-90 12h-206l-84 -310h207z" />
    <glyph glyph-name="S" unicode="S" horiz-adv-x="675" 
d="M316 -10q-100 0 -173.5 36.5t-120.5 101.5l54 41q46 -58 104 -87.5t142 -29.5q42 0 77.5 11t61.5 30.5t41 46.5t15 59q0 22 -8 40t-26 34.5t-47.5 32t-72.5 32.5q-53 21 -91 41t-63 42.5t-37 49t-12 61.5t13.5 68.5t40.5 60.5q37 37 90 57t121 20q84 0 149 -31t107 -79
l-52 -45q-41 45 -92.5 69t-117.5 24q-44 0 -78.5 -11.5t-58.5 -30.5t-37 -43.5t-13 -51.5q0 -24 9.5 -42.5t30 -35t52 -31.5t75.5 -32q97 -37 144 -80t47 -112q0 -40 -15.5 -74.5t-43.5 -62.5q-38 -38 -93 -58.5t-122 -20.5z" />
    <glyph glyph-name="S" unicode="&#x218;" horiz-adv-x="675" 
d="M316 -10q-100 0 -173.5 36.5t-120.5 101.5l54 41q46 -58 104 -87.5t142 -29.5q42 0 77.5 11t61.5 30.5t41 46.5t15 59q0 22 -8 40t-26 34.5t-47.5 32t-72.5 32.5q-53 21 -91 41t-63 42.5t-37 49t-12 61.5t13.5 68.5t40.5 60.5q37 37 90 57t121 20q84 0 149 -31t107 -79
l-52 -45q-41 45 -92.5 69t-117.5 24q-44 0 -78.5 -11.5t-58.5 -30.5t-37 -43.5t-13 -51.5q0 -24 9.5 -42.5t30 -35t52 -31.5t75.5 -32q97 -37 144 -80t47 -112q0 -40 -15.5 -74.5t-43.5 -62.5q-38 -38 -93 -58.5t-122 -20.5z" />
    <glyph glyph-name="S" unicode="&#x15e;" horiz-adv-x="675" 
d="M316 -10q-100 0 -173.5 36.5t-120.5 101.5l54 41q46 -58 104 -87.5t142 -29.5q42 0 77.5 11t61.5 30.5t41 46.5t15 59q0 22 -8 40t-26 34.5t-47.5 32t-72.5 32.5q-53 21 -91 41t-63 42.5t-37 49t-12 61.5t13.5 68.5t40.5 60.5q37 37 90 57t121 20q84 0 149 -31t107 -79
l-52 -45q-41 45 -92.5 69t-117.5 24q-44 0 -78.5 -11.5t-58.5 -30.5t-37 -43.5t-13 -51.5q0 -24 9.5 -42.5t30 -35t52 -31.5t75.5 -32q97 -37 144 -80t47 -112q0 -40 -15.5 -74.5t-43.5 -62.5q-38 -38 -93 -58.5t-122 -20.5z" />
    <glyph glyph-name="S" unicode="&#x15a;" horiz-adv-x="675" 
d="M316 -10q-100 0 -173.5 36.5t-120.5 101.5l54 41q46 -58 104 -87.5t142 -29.5q42 0 77.5 11t61.5 30.5t41 46.5t15 59q0 22 -8 40t-26 34.5t-47.5 32t-72.5 32.5q-53 21 -91 41t-63 42.5t-37 49t-12 61.5t13.5 68.5t40.5 60.5q37 37 90 57t121 20q84 0 149 -31t107 -79
l-52 -45q-41 45 -92.5 69t-117.5 24q-44 0 -78.5 -11.5t-58.5 -30.5t-37 -43.5t-13 -51.5q0 -24 9.5 -42.5t30 -35t52 -31.5t75.5 -32q97 -37 144 -80t47 -112q0 -40 -15.5 -74.5t-43.5 -62.5q-38 -38 -93 -58.5t-122 -20.5z" />
    <glyph glyph-name="T" unicode="T" horiz-adv-x="652" 
d="M394 663h-249l17 65h568l-17 -65h-249l-178 -663h-70z" />
    <glyph glyph-name="T" unicode="&#x21a;" horiz-adv-x="652" 
d="M394 663h-249l17 65h568l-17 -65h-249l-178 -663h-70z" />
    <glyph glyph-name="T" unicode="&#x164;" horiz-adv-x="652" 
d="M394 663h-249l17 65h568l-17 -65h-249l-178 -663h-70z" />
    <glyph glyph-name="T" unicode="&#x162;" horiz-adv-x="652" 
d="M394 663h-249l17 65h568l-17 -65h-249l-178 -663h-70z" />
    <glyph glyph-name="U" unicode="U" horiz-adv-x="799" 
d="M367 -11q-65 0 -114.5 17t-82.5 48t-49.5 73.5t-16.5 92.5q0 57 15 113l105 395h70l-111 -419q-5 -16 -7.5 -37.5t-2.5 -44.5q0 -37 12 -69t37 -55.5t62.5 -37t88.5 -13.5q47 0 90.5 18t78.5 53q29 29 54.5 75t42.5 109l113 421h70l-116 -434q-37 -136 -115 -214
q-45 -45 -101.5 -68t-122.5 -23z" />
    <glyph glyph-name="U" unicode="&#x172;" horiz-adv-x="799" 
d="M367 -11q-65 0 -114.5 17t-82.5 48t-49.5 73.5t-16.5 92.5q0 57 15 113l105 395h70l-111 -419q-5 -16 -7.5 -37.5t-2.5 -44.5q0 -37 12 -69t37 -55.5t62.5 -37t88.5 -13.5q47 0 90.5 18t78.5 53q29 29 54.5 75t42.5 109l113 421h70l-116 -434q-37 -136 -115 -214
q-45 -45 -101.5 -68t-122.5 -23z" />
    <glyph glyph-name="U" unicode="&#x170;" horiz-adv-x="799" 
d="M367 -11q-65 0 -114.5 17t-82.5 48t-49.5 73.5t-16.5 92.5q0 57 15 113l105 395h70l-111 -419q-5 -16 -7.5 -37.5t-2.5 -44.5q0 -37 12 -69t37 -55.5t62.5 -37t88.5 -13.5q47 0 90.5 18t78.5 53q29 29 54.5 75t42.5 109l113 421h70l-116 -434q-37 -136 -115 -214
q-45 -45 -101.5 -68t-122.5 -23z" />
    <glyph glyph-name="U" unicode="&#x16e;" horiz-adv-x="799" 
d="M367 -11q-65 0 -114.5 17t-82.5 48t-49.5 73.5t-16.5 92.5q0 57 15 113l105 395h70l-111 -419q-5 -16 -7.5 -37.5t-2.5 -44.5q0 -37 12 -69t37 -55.5t62.5 -37t88.5 -13.5q47 0 90.5 18t78.5 53q29 29 54.5 75t42.5 109l113 421h70l-116 -434q-37 -136 -115 -214
q-45 -45 -101.5 -68t-122.5 -23z" />
    <glyph glyph-name="U" unicode="&#x16c;" horiz-adv-x="799" 
d="M367 -11q-65 0 -114.5 17t-82.5 48t-49.5 73.5t-16.5 92.5q0 57 15 113l105 395h70l-111 -419q-5 -16 -7.5 -37.5t-2.5 -44.5q0 -37 12 -69t37 -55.5t62.5 -37t88.5 -13.5q47 0 90.5 18t78.5 53q29 29 54.5 75t42.5 109l113 421h70l-116 -434q-37 -136 -115 -214
q-45 -45 -101.5 -68t-122.5 -23z" />
    <glyph glyph-name="U" unicode="&#x16a;" horiz-adv-x="799" 
d="M367 -11q-65 0 -114.5 17t-82.5 48t-49.5 73.5t-16.5 92.5q0 57 15 113l105 395h70l-111 -419q-5 -16 -7.5 -37.5t-2.5 -44.5q0 -37 12 -69t37 -55.5t62.5 -37t88.5 -13.5q47 0 90.5 18t78.5 53q29 29 54.5 75t42.5 109l113 421h70l-116 -434q-37 -136 -115 -214
q-45 -45 -101.5 -68t-122.5 -23z" />
    <glyph glyph-name="V" unicode="V" horiz-adv-x="756" 
d="M151 728h74l95 -645l442 645h79l-510 -733h-62z" />
    <glyph glyph-name="W" unicode="W" horiz-adv-x="1134" 
d="M159 728h73l49 -625l373 627h56l39 -627l384 625h79l-459 -733h-59l-43 607l-368 -607h-59z" />
    <glyph glyph-name="W" unicode="&#x1e84;" horiz-adv-x="1134" 
d="M159 728h73l49 -625l373 627h56l39 -627l384 625h79l-459 -733h-59l-43 607l-368 -607h-59z" />
    <glyph glyph-name="W" unicode="&#x1e82;" horiz-adv-x="1134" 
d="M159 728h73l49 -625l373 627h56l39 -627l384 625h79l-459 -733h-59l-43 607l-368 -607h-59z" />
    <glyph glyph-name="W" unicode="&#x1e80;" horiz-adv-x="1134" 
d="M159 728h73l49 -625l373 627h56l39 -627l384 625h79l-459 -733h-59l-43 607l-368 -607h-59z" />
    <glyph glyph-name="W" unicode="&#x174;" horiz-adv-x="1134" 
d="M159 728h73l49 -625l373 627h56l39 -627l384 625h79l-459 -733h-59l-43 607l-368 -607h-59z" />
    <glyph glyph-name="X" unicode="X" horiz-adv-x="733" 
d="M354 377l-188 351h77l161 -307l305 307h90l-363 -362l194 -366h-76l-168 322l-318 -322h-90z" />
    <glyph glyph-name="Y" unicode="Y" horiz-adv-x="704" 
d="M318 294l-184 434h77l155 -378l359 378h91l-432 -448l-75 -280h-70z" />
    <glyph glyph-name="Y" unicode="&#x1ef2;" horiz-adv-x="704" 
d="M318 294l-184 434h77l155 -378l359 378h91l-432 -448l-75 -280h-70z" />
    <glyph glyph-name="Y" unicode="&#x176;" horiz-adv-x="704" 
d="M318 294l-184 434h77l155 -378l359 378h91l-432 -448l-75 -280h-70z" />
    <glyph glyph-name="Z" unicode="Z" horiz-adv-x="705" 
d="M-2 44l639 621h-456l18 63h559l-12 -44l-639 -621h476l-17 -63h-580z" />
    <glyph glyph-name="Z" unicode="&#x17b;" horiz-adv-x="705" 
d="M-2 44l639 621h-456l18 63h559l-12 -44l-639 -621h476l-17 -63h-580z" />
    <glyph glyph-name="Z" unicode="&#x179;" horiz-adv-x="705" 
d="M-2 44l639 621h-456l18 63h559l-12 -44l-639 -621h476l-17 -63h-580z" />
    <glyph glyph-name="bracketleft" unicode="[" horiz-adv-x="465" 
d="M251 728h291l-14 -52h-229l-203 -759h228l-14 -52h-291z" />
    <glyph glyph-name="backslash" unicode="\" horiz-adv-x="537" 
d="M154 830h59l228 -963h-59z" />
    <glyph glyph-name="bracketright" unicode="]" horiz-adv-x="465" 
d="M229 -135h-292l15 52h228l203 759h-228l14 52h292z" />
    <glyph glyph-name="underscore" unicode="_" horiz-adv-x="636" 
d="M-97 -109h629l-16 -57h-629z" />
    <glyph glyph-name="grave" unicode="`" 
d="M301 729l75 35l56 -145h-47z" />
    <glyph glyph-name="a" unicode="a" horiz-adv-x="608" 
d="M199 -12q-33 0 -64 9.5t-55 28.5t-38.5 47t-14.5 64q0 38 13.5 70t38.5 57q32 32 80 49t108 17q55 0 106 -9t91 -20l3 13q3 12 5.5 26.5t2.5 25.5q0 56 -38.5 86t-113.5 30q-44 0 -80 -7.5t-73 -21.5l-12 58q40 14 81 22.5t92 8.5q100 0 154.5 -44t54.5 -122
q0 -33 -11 -72l-81 -304h-65l23 87q-38 -44 -89 -71.5t-118 -27.5zM217 44q36 0 71.5 12t65.5 34t53 52.5t33 68.5l11 42q-38 10 -85 17t-101 7q-43 0 -76.5 -12.5t-56.5 -34.5q-35 -35 -35 -85q0 -46 32.5 -73.5t87.5 -27.5z" />
    <glyph glyph-name="a" unicode="&#x1fb;" horiz-adv-x="608" 
d="M199 -12q-33 0 -64 9.5t-55 28.5t-38.5 47t-14.5 64q0 38 13.5 70t38.5 57q32 32 80 49t108 17q55 0 106 -9t91 -20l3 13q3 12 5.5 26.5t2.5 25.5q0 56 -38.5 86t-113.5 30q-44 0 -80 -7.5t-73 -21.5l-12 58q40 14 81 22.5t92 8.5q100 0 154.5 -44t54.5 -122
q0 -33 -11 -72l-81 -304h-65l23 87q-38 -44 -89 -71.5t-118 -27.5zM217 44q36 0 71.5 12t65.5 34t53 52.5t33 68.5l11 42q-38 10 -85 17t-101 7q-43 0 -76.5 -12.5t-56.5 -34.5q-35 -35 -35 -85q0 -46 32.5 -73.5t87.5 -27.5z" />
    <glyph glyph-name="a" unicode="&#x105;" horiz-adv-x="608" 
d="M199 -12q-33 0 -64 9.5t-55 28.5t-38.5 47t-14.5 64q0 38 13.5 70t38.5 57q32 32 80 49t108 17q55 0 106 -9t91 -20l3 13q3 12 5.5 26.5t2.5 25.5q0 56 -38.5 86t-113.5 30q-44 0 -80 -7.5t-73 -21.5l-12 58q40 14 81 22.5t92 8.5q100 0 154.5 -44t54.5 -122
q0 -33 -11 -72l-81 -304h-65l23 87q-38 -44 -89 -71.5t-118 -27.5zM217 44q36 0 71.5 12t65.5 34t53 52.5t33 68.5l11 42q-38 10 -85 17t-101 7q-43 0 -76.5 -12.5t-56.5 -34.5q-35 -35 -35 -85q0 -46 32.5 -73.5t87.5 -27.5z" />
    <glyph glyph-name="a" unicode="&#x103;" horiz-adv-x="608" 
d="M199 -12q-33 0 -64 9.5t-55 28.5t-38.5 47t-14.5 64q0 38 13.5 70t38.5 57q32 32 80 49t108 17q55 0 106 -9t91 -20l3 13q3 12 5.5 26.5t2.5 25.5q0 56 -38.5 86t-113.5 30q-44 0 -80 -7.5t-73 -21.5l-12 58q40 14 81 22.5t92 8.5q100 0 154.5 -44t54.5 -122
q0 -33 -11 -72l-81 -304h-65l23 87q-38 -44 -89 -71.5t-118 -27.5zM217 44q36 0 71.5 12t65.5 34t53 52.5t33 68.5l11 42q-38 10 -85 17t-101 7q-43 0 -76.5 -12.5t-56.5 -34.5q-35 -35 -35 -85q0 -46 32.5 -73.5t87.5 -27.5z" />
    <glyph glyph-name="a" unicode="&#x101;" horiz-adv-x="608" 
d="M199 -12q-33 0 -64 9.5t-55 28.5t-38.5 47t-14.5 64q0 38 13.5 70t38.5 57q32 32 80 49t108 17q55 0 106 -9t91 -20l3 13q3 12 5.5 26.5t2.5 25.5q0 56 -38.5 86t-113.5 30q-44 0 -80 -7.5t-73 -21.5l-12 58q40 14 81 22.5t92 8.5q100 0 154.5 -44t54.5 -122
q0 -33 -11 -72l-81 -304h-65l23 87q-38 -44 -89 -71.5t-118 -27.5zM217 44q36 0 71.5 12t65.5 34t53 52.5t33 68.5l11 42q-38 10 -85 17t-101 7q-43 0 -76.5 -12.5t-56.5 -34.5q-35 -35 -35 -85q0 -46 32.5 -73.5t87.5 -27.5z" />
    <glyph glyph-name="b" unicode="b" horiz-adv-x="695" 
d="M334 -13q-42 0 -75.5 11.5t-59 31t-43 45t-27.5 52.5l-34 -127h-68l204 759h67l-87 -322q39 46 91 78t120 32q46 0 85 -16.5t67.5 -46.5t44.5 -71.5t16 -91.5q0 -75 -27 -138.5t-73 -108.5q-41 -42 -92.5 -64.5t-108.5 -22.5zM329 48q46 0 85.5 17.5t69.5 47.5
q38 38 59 90.5t21 110.5q0 39 -11.5 70.5t-32.5 54t-50 35t-63 12.5q-46 0 -90 -20.5t-79 -55.5q-37 -37 -59.5 -85.5t-22.5 -101.5q0 -37 12.5 -69t35.5 -55.5t54.5 -37t70.5 -13.5z" />
    <glyph glyph-name="c" unicode="c" horiz-adv-x="597" 
d="M292 -12q-46 0 -88.5 15.5t-75 45.5t-52 73t-19.5 98q0 67 26.5 127.5t71.5 105.5q43 43 98.5 68.5t117.5 25.5q42 0 75.5 -10.5t59.5 -28.5t45 -41t31 -48l-55 -34q-12 21 -26.5 39t-33.5 32t-44 22t-56 8q-45 0 -86 -19.5t-73 -51.5q-37 -37 -59 -87t-22 -106
q0 -42 14 -74.5t37.5 -54.5t53.5 -33.5t63 -11.5q50 0 89.5 20t75.5 53l42 -44q-42 -39 -93 -64t-117 -25z" />
    <glyph glyph-name="c" unicode="&#x10d;" horiz-adv-x="597" 
d="M292 -12q-46 0 -88.5 15.5t-75 45.5t-52 73t-19.5 98q0 67 26.5 127.5t71.5 105.5q43 43 98.5 68.5t117.5 25.5q42 0 75.5 -10.5t59.5 -28.5t45 -41t31 -48l-55 -34q-12 21 -26.5 39t-33.5 32t-44 22t-56 8q-45 0 -86 -19.5t-73 -51.5q-37 -37 -59 -87t-22 -106
q0 -42 14 -74.5t37.5 -54.5t53.5 -33.5t63 -11.5q50 0 89.5 20t75.5 53l42 -44q-42 -39 -93 -64t-117 -25z" />
    <glyph glyph-name="c" unicode="&#x10b;" horiz-adv-x="597" 
d="M292 -12q-46 0 -88.5 15.5t-75 45.5t-52 73t-19.5 98q0 67 26.5 127.5t71.5 105.5q43 43 98.5 68.5t117.5 25.5q42 0 75.5 -10.5t59.5 -28.5t45 -41t31 -48l-55 -34q-12 21 -26.5 39t-33.5 32t-44 22t-56 8q-45 0 -86 -19.5t-73 -51.5q-37 -37 -59 -87t-22 -106
q0 -42 14 -74.5t37.5 -54.5t53.5 -33.5t63 -11.5q50 0 89.5 20t75.5 53l42 -44q-42 -39 -93 -64t-117 -25z" />
    <glyph glyph-name="c" unicode="&#x107;" horiz-adv-x="597" 
d="M292 -12q-46 0 -88.5 15.5t-75 45.5t-52 73t-19.5 98q0 67 26.5 127.5t71.5 105.5q43 43 98.5 68.5t117.5 25.5q42 0 75.5 -10.5t59.5 -28.5t45 -41t31 -48l-55 -34q-12 21 -26.5 39t-33.5 32t-44 22t-56 8q-45 0 -86 -19.5t-73 -51.5q-37 -37 -59 -87t-22 -106
q0 -42 14 -74.5t37.5 -54.5t53.5 -33.5t63 -11.5q50 0 89.5 20t75.5 53l42 -44q-42 -39 -93 -64t-117 -25z" />
    <glyph glyph-name="d" unicode="d" horiz-adv-x="695" 
d="M484 97q-39 -46 -91 -78t-120 -32q-46 0 -85 16.5t-67.5 46.5t-44.5 71.5t-16 91.5q0 75 27.5 138t72.5 109q42 41 93 64t108 23q43 0 76.5 -12t58.5 -31.5t42.5 -45t28.5 -52.5l94 353h67l-203 -759h-67zM289 48q45 0 89 20.5t79 55.5q37 37 59.5 85t22.5 102
q0 36 -12.5 68t-35.5 56t-54.5 37.5t-70.5 13.5q-46 0 -85.5 -18t-69.5 -47q-38 -38 -59 -90.5t-21 -110.5q0 -39 11.5 -71t32.5 -54.5t50 -34.5t64 -12z" />
    <glyph glyph-name="e" unicode="e" horiz-adv-x="622" 
d="M127 244q-1 -7 -1 -14v-14q0 -37 11.5 -68.5t33 -54t51.5 -35t68 -12.5q55 0 97 18.5t80 48.5l36 -45q-42 -35 -93.5 -57.5t-123.5 -22.5q-51 0 -93 16.5t-72.5 46.5t-47 71.5t-16.5 91.5q0 67 27 130.5t75 111.5q42 42 94.5 66.5t113.5 24.5q51 0 89 -16.5t64 -44.5
t39 -65t13 -79q0 -53 -17 -98h-428zM209 421q-26 -26 -43.5 -57t-28.5 -66h364q2 7 3 17.5t1 24.5q0 30 -8.5 57t-25.5 47t-44 32t-63 12q-46 0 -85.5 -18.5t-69.5 -48.5z" />
    <glyph glyph-name="e" unicode="&#x11b;" horiz-adv-x="622" 
d="M127 244q-1 -7 -1 -14v-14q0 -37 11.5 -68.5t33 -54t51.5 -35t68 -12.5q55 0 97 18.5t80 48.5l36 -45q-42 -35 -93.5 -57.5t-123.5 -22.5q-51 0 -93 16.5t-72.5 46.5t-47 71.5t-16.5 91.5q0 67 27 130.5t75 111.5q42 42 94.5 66.5t113.5 24.5q51 0 89 -16.5t64 -44.5
t39 -65t13 -79q0 -53 -17 -98h-428zM209 421q-26 -26 -43.5 -57t-28.5 -66h364q2 7 3 17.5t1 24.5q0 30 -8.5 57t-25.5 47t-44 32t-63 12q-46 0 -85.5 -18.5t-69.5 -48.5z" />
    <glyph glyph-name="e" unicode="&#x119;" horiz-adv-x="622" 
d="M127 244q-1 -7 -1 -14v-14q0 -37 11.5 -68.5t33 -54t51.5 -35t68 -12.5q55 0 97 18.5t80 48.5l36 -45q-42 -35 -93.5 -57.5t-123.5 -22.5q-51 0 -93 16.5t-72.5 46.5t-47 71.5t-16.5 91.5q0 67 27 130.5t75 111.5q42 42 94.5 66.5t113.5 24.5q51 0 89 -16.5t64 -44.5
t39 -65t13 -79q0 -53 -17 -98h-428zM209 421q-26 -26 -43.5 -57t-28.5 -66h364q2 7 3 17.5t1 24.5q0 30 -8.5 57t-25.5 47t-44 32t-63 12q-46 0 -85.5 -18.5t-69.5 -48.5z" />
    <glyph glyph-name="e" unicode="&#x117;" horiz-adv-x="622" 
d="M127 244q-1 -7 -1 -14v-14q0 -37 11.5 -68.5t33 -54t51.5 -35t68 -12.5q55 0 97 18.5t80 48.5l36 -45q-42 -35 -93.5 -57.5t-123.5 -22.5q-51 0 -93 16.5t-72.5 46.5t-47 71.5t-16.5 91.5q0 67 27 130.5t75 111.5q42 42 94.5 66.5t113.5 24.5q51 0 89 -16.5t64 -44.5
t39 -65t13 -79q0 -53 -17 -98h-428zM209 421q-26 -26 -43.5 -57t-28.5 -66h364q2 7 3 17.5t1 24.5q0 30 -8.5 57t-25.5 47t-44 32t-63 12q-46 0 -85.5 -18.5t-69.5 -48.5z" />
    <glyph glyph-name="e" unicode="&#x115;" horiz-adv-x="622" 
d="M127 244q-1 -7 -1 -14v-14q0 -37 11.5 -68.5t33 -54t51.5 -35t68 -12.5q55 0 97 18.5t80 48.5l36 -45q-42 -35 -93.5 -57.5t-123.5 -22.5q-51 0 -93 16.5t-72.5 46.5t-47 71.5t-16.5 91.5q0 67 27 130.5t75 111.5q42 42 94.5 66.5t113.5 24.5q51 0 89 -16.5t64 -44.5
t39 -65t13 -79q0 -53 -17 -98h-428zM209 421q-26 -26 -43.5 -57t-28.5 -66h364q2 7 3 17.5t1 24.5q0 30 -8.5 57t-25.5 47t-44 32t-63 12q-46 0 -85.5 -18.5t-69.5 -48.5z" />
    <glyph glyph-name="e" unicode="&#x113;" horiz-adv-x="622" 
d="M127 244q-1 -7 -1 -14v-14q0 -37 11.5 -68.5t33 -54t51.5 -35t68 -12.5q55 0 97 18.5t80 48.5l36 -45q-42 -35 -93.5 -57.5t-123.5 -22.5q-51 0 -93 16.5t-72.5 46.5t-47 71.5t-16.5 91.5q0 67 27 130.5t75 111.5q42 42 94.5 66.5t113.5 24.5q51 0 89 -16.5t64 -44.5
t39 -65t13 -79q0 -53 -17 -98h-428zM209 421q-26 -26 -43.5 -57t-28.5 -66h364q2 7 3 17.5t1 24.5q0 30 -8.5 57t-25.5 47t-44 32t-63 12q-46 0 -85.5 -18.5t-69.5 -48.5z" />
    <glyph glyph-name="f" unicode="f" horiz-adv-x="396" 
d="M186 474h-76l17 60h75l18 69q10 38 24 64.5t35 46.5q45 46 119 46q31 0 58 -6t49 -17l-16 -59q-25 12 -46 17.5t-45 5.5q-41 0 -70 -26t-44 -83l-16 -58h183l-16 -60h-182l-128 -474h-67z" />
    <glyph glyph-name="g" unicode="g" horiz-adv-x="695" 
d="M254 -168q-73 0 -141 25t-117 70l45 48q42 -38 96 -61t117 -23q54 0 92.5 15.5t64.5 41.5q25 26 41 58t28 75l17 60q-41 -42 -92 -71.5t-120 -29.5q-42 0 -81.5 14t-70 40t-49 64.5t-18.5 86.5q0 65 24 118t64 93q43 43 98.5 67t114.5 24q45 0 77.5 -11.5t56.5 -30.5
t40 -43.5t27 -49.5l33 122h67l-123 -462q-17 -60 -37 -98t-49 -66q-38 -38 -87.5 -57t-117.5 -19zM302 100q49 0 93.5 20t78.5 55q32 31 50.5 70t18.5 81q0 30 -12 59t-34.5 51t-55 35.5t-73.5 13.5q-45 0 -87.5 -17.5t-74.5 -50.5q-31 -31 -50 -72.5t-19 -92.5
q0 -38 14 -66t37 -47.5t52.5 -29t61.5 -9.5z" />
    <glyph glyph-name="g" unicode="&#x123;" horiz-adv-x="695" 
d="M254 -168q-73 0 -141 25t-117 70l45 48q42 -38 96 -61t117 -23q54 0 92.5 15.5t64.5 41.5q25 26 41 58t28 75l17 60q-41 -42 -92 -71.5t-120 -29.5q-42 0 -81.5 14t-70 40t-49 64.5t-18.5 86.5q0 65 24 118t64 93q43 43 98.5 67t114.5 24q45 0 77.5 -11.5t56.5 -30.5
t40 -43.5t27 -49.5l33 122h67l-123 -462q-17 -60 -37 -98t-49 -66q-38 -38 -87.5 -57t-117.5 -19zM302 100q49 0 93.5 20t78.5 55q32 31 50.5 70t18.5 81q0 30 -12 59t-34.5 51t-55 35.5t-73.5 13.5q-45 0 -87.5 -17.5t-74.5 -50.5q-31 -31 -50 -72.5t-19 -92.5
q0 -38 14 -66t37 -47.5t52.5 -29t61.5 -9.5z" />
    <glyph glyph-name="g" unicode="&#x121;" horiz-adv-x="695" 
d="M254 -168q-73 0 -141 25t-117 70l45 48q42 -38 96 -61t117 -23q54 0 92.5 15.5t64.5 41.5q25 26 41 58t28 75l17 60q-41 -42 -92 -71.5t-120 -29.5q-42 0 -81.5 14t-70 40t-49 64.5t-18.5 86.5q0 65 24 118t64 93q43 43 98.5 67t114.5 24q45 0 77.5 -11.5t56.5 -30.5
t40 -43.5t27 -49.5l33 122h67l-123 -462q-17 -60 -37 -98t-49 -66q-38 -38 -87.5 -57t-117.5 -19zM302 100q49 0 93.5 20t78.5 55q32 31 50.5 70t18.5 81q0 30 -12 59t-34.5 51t-55 35.5t-73.5 13.5q-45 0 -87.5 -17.5t-74.5 -50.5q-31 -31 -50 -72.5t-19 -92.5
q0 -38 14 -66t37 -47.5t52.5 -29t61.5 -9.5z" />
    <glyph glyph-name="g" unicode="&#x11f;" horiz-adv-x="695" 
d="M254 -168q-73 0 -141 25t-117 70l45 48q42 -38 96 -61t117 -23q54 0 92.5 15.5t64.5 41.5q25 26 41 58t28 75l17 60q-41 -42 -92 -71.5t-120 -29.5q-42 0 -81.5 14t-70 40t-49 64.5t-18.5 86.5q0 65 24 118t64 93q43 43 98.5 67t114.5 24q45 0 77.5 -11.5t56.5 -30.5
t40 -43.5t27 -49.5l33 122h67l-123 -462q-17 -60 -37 -98t-49 -66q-38 -38 -87.5 -57t-117.5 -19zM302 100q49 0 93.5 20t78.5 55q32 31 50.5 70t18.5 81q0 30 -12 59t-34.5 51t-55 35.5t-73.5 13.5q-45 0 -87.5 -17.5t-74.5 -50.5q-31 -31 -50 -72.5t-19 -92.5
q0 -38 14 -66t37 -47.5t52.5 -29t61.5 -9.5z" />
    <glyph glyph-name="h" unicode="h" horiz-adv-x="647" 
d="M231 759h67l-85 -317q38 44 83.5 74.5t109.5 30.5q39 0 70.5 -12t54 -34t35 -53t12.5 -69q0 -18 -3.5 -38.5t-8.5 -40.5l-79 -300h-67l81 304q4 14 6 31.5t2 31.5q0 56 -33.5 87.5t-93.5 31.5q-33 0 -65 -13.5t-60 -38t-49.5 -58.5t-32.5 -74l-80 -302h-68z" />
    <glyph glyph-name="h" unicode="&#x127;" horiz-adv-x="647" 
d="M231 759h67l-85 -317q38 44 83.5 74.5t109.5 30.5q39 0 70.5 -12t54 -34t35 -53t12.5 -69q0 -18 -3.5 -38.5t-8.5 -40.5l-79 -300h-67l81 304q4 14 6 31.5t2 31.5q0 56 -33.5 87.5t-93.5 31.5q-33 0 -65 -13.5t-60 -38t-49.5 -58.5t-32.5 -74l-80 -302h-68z" />
    <glyph glyph-name="i" unicode="i" horiz-adv-x="280" 
d="M178 534h67l-143 -534h-67zM228 742h79l-21 -81h-79z" />
    <glyph glyph-name="i" unicode="&#x12f;" horiz-adv-x="280" 
d="M178 534h67l-143 -534h-67zM228 742h79l-21 -81h-79z" />
    <glyph glyph-name="i" unicode="&#x12d;" horiz-adv-x="280" 
d="M178 534h67l-143 -534h-67zM228 742h79l-21 -81h-79z" />
    <glyph glyph-name="i" unicode="&#x12b;" horiz-adv-x="280" 
d="M178 534h67l-143 -534h-67zM228 742h79l-21 -81h-79z" />
    <glyph glyph-name="j" unicode="j" horiz-adv-x="279" 
d="M-47 -170q-19 0 -34.5 2.5t-34.5 8.5l16 57q11 -3 23.5 -5.5t23.5 -2.5q26 0 46.5 17.5t31.5 55.5l153 571h67l-155 -578q-17 -63 -52.5 -94.5t-84.5 -31.5zM228 742h79l-21 -81h-79z" />
    <glyph glyph-name="k" unicode="k" horiz-adv-x="599" 
d="M231 759h67l-144 -537l384 312h94l-292 -234l153 -300h-77l-132 258l-153 -123l-36 -135h-68z" />
    <glyph glyph-name="k" unicode="&#x137;" horiz-adv-x="599" 
d="M231 759h67l-144 -537l384 312h94l-292 -234l153 -300h-77l-132 258l-153 -123l-36 -135h-68z" />
    <glyph glyph-name="l" unicode="l" horiz-adv-x="280" 
d="M239 759h67l-204 -759h-67z" />
    <glyph glyph-name="l" unicode="&#x140;" horiz-adv-x="280" 
d="M239 759h67l-204 -759h-67z" />
    <glyph glyph-name="l" unicode="&#x13e;" horiz-adv-x="280" 
d="M239 759h67l-204 -759h-67z" />
    <glyph glyph-name="l" unicode="&#x13c;" horiz-adv-x="280" 
d="M239 759h67l-204 -759h-67z" />
    <glyph glyph-name="l" unicode="&#x13a;" horiz-adv-x="280" 
d="M239 759h67l-204 -759h-67z" />
    <glyph glyph-name="m" unicode="m" horiz-adv-x="1001" 
d="M170 534h67l-24 -92q19 22 38.5 41t41.5 33.5t47.5 22.5t56.5 8q34 0 60.5 -11t45.5 -28.5t30.5 -40t16.5 -46.5q36 57 91 91.5t129 34.5q36 0 66 -12.5t52 -34.5t34 -53t12 -68q0 -18 -4.5 -38.5t-9.5 -40.5l-79 -300h-67l81 304q4 14 6 31.5t2 31.5q0 55 -31.5 87
t-86.5 32q-31 0 -61.5 -14t-57 -38.5t-47.5 -58t-31 -73.5l-80 -302h-67l81 304q4 14 6 31.5t2 31.5q0 55 -31.5 87t-86.5 32q-30 0 -61 -14t-57.5 -38.5t-47.5 -58t-31 -73.5l-80 -302h-68z" />
    <glyph glyph-name="n" unicode="n" horiz-adv-x="649" 
d="M170 534h67l-24 -92q38 44 83.5 74.5t109.5 30.5q39 0 70.5 -12t54 -34t35 -53t12.5 -69q0 -18 -3.5 -38.5t-8.5 -40.5l-79 -300h-67l81 304q4 14 6 31.5t2 31.5q0 56 -33.5 87.5t-93.5 31.5q-33 0 -65 -13.5t-60 -38t-49.5 -58.5t-32.5 -74l-80 -302h-68z" />
    <glyph glyph-name="n" unicode="&#x148;" horiz-adv-x="649" 
d="M170 534h67l-24 -92q38 44 83.5 74.5t109.5 30.5q39 0 70.5 -12t54 -34t35 -53t12.5 -69q0 -18 -3.5 -38.5t-8.5 -40.5l-79 -300h-67l81 304q4 14 6 31.5t2 31.5q0 56 -33.5 87.5t-93.5 31.5q-33 0 -65 -13.5t-60 -38t-49.5 -58.5t-32.5 -74l-80 -302h-68z" />
    <glyph glyph-name="n" unicode="&#x146;" horiz-adv-x="649" 
d="M170 534h67l-24 -92q38 44 83.5 74.5t109.5 30.5q39 0 70.5 -12t54 -34t35 -53t12.5 -69q0 -18 -3.5 -38.5t-8.5 -40.5l-79 -300h-67l81 304q4 14 6 31.5t2 31.5q0 56 -33.5 87.5t-93.5 31.5q-33 0 -65 -13.5t-60 -38t-49.5 -58.5t-32.5 -74l-80 -302h-68z" />
    <glyph glyph-name="n" unicode="&#x144;" horiz-adv-x="649" 
d="M170 534h67l-24 -92q38 44 83.5 74.5t109.5 30.5q39 0 70.5 -12t54 -34t35 -53t12.5 -69q0 -18 -3.5 -38.5t-8.5 -40.5l-79 -300h-67l81 304q4 14 6 31.5t2 31.5q0 56 -33.5 87.5t-93.5 31.5q-33 0 -65 -13.5t-60 -38t-49.5 -58.5t-32.5 -74l-80 -302h-68z" />
    <glyph glyph-name="o" unicode="o" horiz-adv-x="672" 
d="M374 547q54 0 98.5 -18t76 -50t49 -75.5t17.5 -95.5q0 -64 -26 -122.5t-71 -103.5q-43 -43 -99.5 -68.5t-119.5 -25.5q-54 0 -98.5 18t-76 49.5t-49 75t-17.5 95.5q0 64 25.5 122.5t70.5 103.5q44 43 100.5 69t119.5 26zM304 48q46 0 87.5 20t73.5 52q37 36 58.5 84.5
t21.5 101.5q0 86 -49 133t-128 47q-45 0 -87 -19.5t-74 -51.5q-37 -37 -58 -85.5t-21 -101.5q0 -43 13 -76.5t36 -56.5t55.5 -35t71.5 -12z" />
    <glyph glyph-name="o" unicode="&#x1ff;" horiz-adv-x="672" 
d="M374 547q54 0 98.5 -18t76 -50t49 -75.5t17.5 -95.5q0 -64 -26 -122.5t-71 -103.5q-43 -43 -99.5 -68.5t-119.5 -25.5q-54 0 -98.5 18t-76 49.5t-49 75t-17.5 95.5q0 64 25.5 122.5t70.5 103.5q44 43 100.5 69t119.5 26zM304 48q46 0 87.5 20t73.5 52q37 36 58.5 84.5
t21.5 101.5q0 86 -49 133t-128 47q-45 0 -87 -19.5t-74 -51.5q-37 -37 -58 -85.5t-21 -101.5q0 -43 13 -76.5t36 -56.5t55.5 -35t71.5 -12z" />
    <glyph glyph-name="o" unicode="&#x151;" horiz-adv-x="672" 
d="M374 547q54 0 98.5 -18t76 -50t49 -75.5t17.5 -95.5q0 -64 -26 -122.5t-71 -103.5q-43 -43 -99.5 -68.5t-119.5 -25.5q-54 0 -98.5 18t-76 49.5t-49 75t-17.5 95.5q0 64 25.5 122.5t70.5 103.5q44 43 100.5 69t119.5 26zM304 48q46 0 87.5 20t73.5 52q37 36 58.5 84.5
t21.5 101.5q0 86 -49 133t-128 47q-45 0 -87 -19.5t-74 -51.5q-37 -37 -58 -85.5t-21 -101.5q0 -43 13 -76.5t36 -56.5t55.5 -35t71.5 -12z" />
    <glyph glyph-name="o" unicode="&#x14f;" horiz-adv-x="672" 
d="M374 547q54 0 98.5 -18t76 -50t49 -75.5t17.5 -95.5q0 -64 -26 -122.5t-71 -103.5q-43 -43 -99.5 -68.5t-119.5 -25.5q-54 0 -98.5 18t-76 49.5t-49 75t-17.5 95.5q0 64 25.5 122.5t70.5 103.5q44 43 100.5 69t119.5 26zM304 48q46 0 87.5 20t73.5 52q37 36 58.5 84.5
t21.5 101.5q0 86 -49 133t-128 47q-45 0 -87 -19.5t-74 -51.5q-37 -37 -58 -85.5t-21 -101.5q0 -43 13 -76.5t36 -56.5t55.5 -35t71.5 -12z" />
    <glyph glyph-name="o" unicode="&#x14d;" horiz-adv-x="672" 
d="M374 547q54 0 98.5 -18t76 -50t49 -75.5t17.5 -95.5q0 -64 -26 -122.5t-71 -103.5q-43 -43 -99.5 -68.5t-119.5 -25.5q-54 0 -98.5 18t-76 49.5t-49 75t-17.5 95.5q0 64 25.5 122.5t70.5 103.5q44 43 100.5 69t119.5 26zM304 48q46 0 87.5 20t73.5 52q37 36 58.5 84.5
t21.5 101.5q0 86 -49 133t-128 47q-45 0 -87 -19.5t-74 -51.5q-37 -37 -58 -85.5t-21 -101.5q0 -43 13 -76.5t36 -56.5t55.5 -35t71.5 -12z" />
    <glyph glyph-name="p" unicode="p" horiz-adv-x="695" 
d="M334 -13q-42 0 -75.5 11.5t-59 31t-43 45t-27.5 52.5l-79 -293h-67l187 700h67l-26 -97q39 46 91 78t120 32q46 0 85 -16.5t67.5 -46.5t44.5 -71.5t16 -91.5q0 -75 -27 -138.5t-73 -108.5q-41 -42 -92.5 -64.5t-108.5 -22.5zM329 48q46 0 85.5 17.5t69.5 47.5
q38 38 59 90.5t21 110.5q0 39 -11.5 70.5t-32.5 54t-50 35t-63 12.5q-46 0 -90 -20.5t-79 -55.5q-37 -37 -59.5 -85.5t-22.5 -101.5q0 -37 12.5 -69t35.5 -55.5t54.5 -37t70.5 -13.5z" />
    <glyph glyph-name="q" unicode="q" horiz-adv-x="695" 
d="M273 -13q-46 0 -85 16.5t-67.5 46.5t-44.5 71.5t-16 91.5q0 75 27.5 138t72.5 109q42 41 93 64t108 23q43 0 76.5 -12t58.5 -31.5t42.5 -45t28.5 -52.5l34 128h67l-188 -700h-67l71 263q-39 -46 -91 -78t-120 -32zM289 48q45 0 89 20.5t79 55.5q37 37 59.5 85t22.5 102
q0 36 -12.5 68t-35.5 56t-54.5 37.5t-70.5 13.5q-46 0 -85.5 -18t-69.5 -47q-38 -38 -59 -90.5t-21 -110.5q0 -39 11.5 -71t32.5 -54.5t50 -34.5t64 -12z" />
    <glyph glyph-name="r" unicode="r" horiz-adv-x="427" 
d="M170 534h67l-38 -145q51 72 116 115t148 39l-20 -72h-4q-45 0 -89.5 -17t-82.5 -49.5t-68.5 -80.5t-46.5 -110l-57 -214h-68z" />
    <glyph glyph-name="s" unicode="s" horiz-adv-x="528" 
d="M232 -12q-63 0 -123 23.5t-106 69.5l45 45q44 -42 92 -61t99 -19q24 0 46.5 7t40 19.5t28.5 30.5t11 40q0 28 -22 50.5t-85 46.5q-75 28 -113 59.5t-38 86.5q0 33 14 62t40 51t63 34.5t83 12.5q59 0 110.5 -21.5t85.5 -50.5l-41 -48q-32 26 -74 44t-87 18
q-30 0 -53.5 -7.5t-39.5 -20.5t-24.5 -29t-8.5 -34q0 -14 5 -26t17.5 -23.5t34.5 -23t56 -24.5q76 -30 111 -63t35 -83q0 -36 -16 -66.5t-43.5 -52.5t-64 -34.5t-78.5 -12.5z" />
    <glyph glyph-name="t" unicode="t" horiz-adv-x="427" 
d="M218 -9q-56 0 -92.5 25.5t-36.5 79.5q0 14 2 28.5t5 25.5l87 324h-76l16 60h76l44 166h68l-45 -166h175l-16 -60h-175l-86 -322q-2 -10 -4 -21.5t-2 -20.5q0 -30 21.5 -44.5t58.5 -14.5q32 0 78 17l-17 -62q-22 -8 -40.5 -11.5t-40.5 -3.5z" />
    <glyph glyph-name="t" unicode="&#x21b;" horiz-adv-x="427" 
d="M218 -9q-56 0 -92.5 25.5t-36.5 79.5q0 14 2 28.5t5 25.5l87 324h-76l16 60h76l44 166h68l-45 -166h175l-16 -60h-175l-86 -322q-2 -10 -4 -21.5t-2 -20.5q0 -30 21.5 -44.5t58.5 -14.5q32 0 78 17l-17 -62q-22 -8 -40.5 -11.5t-40.5 -3.5z" />
    <glyph glyph-name="t" unicode="&#x165;" horiz-adv-x="427" 
d="M218 -9q-56 0 -92.5 25.5t-36.5 79.5q0 14 2 28.5t5 25.5l87 324h-76l16 60h76l44 166h68l-45 -166h175l-16 -60h-175l-86 -322q-2 -10 -4 -21.5t-2 -20.5q0 -30 21.5 -44.5t58.5 -14.5q32 0 78 17l-17 -62q-22 -8 -40.5 -11.5t-40.5 -3.5z" />
    <glyph glyph-name="t" unicode="&#x163;" horiz-adv-x="427" 
d="M218 -9q-56 0 -92.5 25.5t-36.5 79.5q0 14 2 28.5t5 25.5l87 324h-76l16 60h76l44 166h68l-45 -166h175l-16 -60h-175l-86 -322q-2 -10 -4 -21.5t-2 -20.5q0 -30 21.5 -44.5t58.5 -14.5q32 0 78 17l-17 -62q-22 -8 -40.5 -11.5t-40.5 -3.5z" />
    <glyph glyph-name="u" unicode="u" horiz-adv-x="647" 
d="M241 -12q-39 0 -71 12t-54.5 33.5t-34.5 52.5t-12 69q0 19 4 39.5t9 40.5l79 299h67l-82 -304q-4 -14 -6 -31.5t-2 -31.5q0 -56 34 -87.5t94 -31.5q32 0 64.5 13.5t60 38.5t49 58.5t32.5 74.5l81 301h67l-143 -534h-67l24 93q-18 -22 -38.5 -41t-44 -33.5t-51 -22.5
t-59.5 -8z" />
    <glyph glyph-name="v" unicode="v" horiz-adv-x="597" 
d="M98 534h71l67 -457l309 457h78l-377 -538h-58z" />
    <glyph glyph-name="w" unicode="w" horiz-adv-x="893" 
d="M107 534h69l32 -443l271 446h55l33 -446l270 443h72l-336 -538h-60l-33 437l-269 -437h-57z" />
    <glyph glyph-name="x" unicode="x" horiz-adv-x="596" 
d="M310 321l218 213h86l-276 -263l143 -271h-74l-114 227l-234 -227h-86l291 277l-137 257h75z" />
    <glyph glyph-name="y" unicode="y" horiz-adv-x="606" 
d="M96 534h71l81 -459l302 459h79l-373 -552q-57 -84 -108 -118t-111 -34q-63 0 -115 37l36 51q18 -13 39.5 -21t47.5 -8q37 0 73 24t80 87z" />
    <glyph glyph-name="y" unicode="&#x1ef3;" horiz-adv-x="606" 
d="M96 534h71l81 -459l302 459h79l-373 -552q-57 -84 -108 -118t-111 -34q-63 0 -115 37l36 51q18 -13 39.5 -21t47.5 -8q37 0 73 24t80 87z" />
    <glyph glyph-name="y" unicode="&#x177;" horiz-adv-x="606" 
d="M96 534h71l81 -459l302 459h79l-373 -552q-57 -84 -108 -118t-111 -34q-63 0 -115 37l36 51q18 -13 39.5 -21t47.5 -8q37 0 73 24t80 87z" />
    <glyph glyph-name="z" unicode="z" horiz-adv-x="582" 
d="M-2 41l475 435h-345l16 58h446l-12 -41l-475 -435h362l-16 -58h-462z" />
    <glyph glyph-name="braceleft" unicode="{" horiz-adv-x="513" 
d="M330 -147q-47 10 -79 27.5t-52 40t-29 49t-9 55.5q0 13 1 24.5t4 25t7.5 30t11.5 39.5q5 17 7.5 32t2.5 28q0 33 -21 51t-76 18h-28l14 51h28q38 0 65 8.5t47 28.5q14 14 24 34t17 41t11.5 42t7.5 36q9 44 24 83.5t47 72.5q33 33 84 51t128 23l-1 -49q-58 -3 -96.5 -17.5
t-64.5 -40.5q-23 -23 -35.5 -56t-20.5 -69q-5 -23 -10 -46.5t-12.5 -46.5t-18.5 -44t-27 -37q-19 -19 -42 -28.5t-53 -14.5q74 -21 74 -87q0 -14 -3 -30.5t-8 -32.5q-8 -25 -15 -56t-7 -56q0 -49 27 -83.5t96 -54.5z" />
    <glyph glyph-name="bar" unicode="|" horiz-adv-x="319" 
d="M282 830h58l-259 -963h-57z" />
    <glyph glyph-name="braceright" unicode="}" horiz-adv-x="513" 
d="M199 744q46 -10 78.5 -27.5t52.5 -40t29 -49.5t9 -55q0 -13 -1 -24.5t-4 -25t-7.5 -30.5t-10.5 -39q-11 -36 -11 -60q0 -33 21 -51t76 -18h28l-14 -51h-28q-38 0 -64.5 -8.5t-46.5 -28.5q-14 -14 -24 -34t-17.5 -41t-12 -42t-7.5 -36q-9 -44 -24 -83.5t-47 -72.5
t-83.5 -51t-128.5 -23l1 49q58 3 96.5 17.5t64.5 40.5q23 23 36 56t20 69q5 22 10.5 46t13 47t18 44t26.5 37q19 19 42 28.5t54 14.5q-75 21 -75 87q0 14 3 30.5t8 32.5q8 25 15 56t7 56q0 49 -27 83.5t-96 54.5z" />
    <glyph glyph-name="exclamdown" unicode="&#xa1;" horiz-adv-x="285" 
d="M128 65l-18 -65h-79l18 65l145 464h38zM281 628h-84l27 100h84z" />
    <glyph glyph-name="cent" unicode="&#xa2;" horiz-adv-x="597" 
d="M524 734l-39 -98q53 -15 86 -46.5t51 -68.5l-54 -33q-18 32 -43 56.5t-66 35.5l-168 -428q8 -2 16 -2h16q55 0 97.5 19t80.5 53l42 -44q-43 -40 -96.5 -64.5t-125.5 -24.5q-13 0 -25.5 1t-23.5 3l-39 -99h-61l46 115q-63 27 -99 82t-36 128q0 69 26 130t71 106
q44 44 100.5 68.5t121.5 24.5q7 0 13.5 -0.5t13.5 -0.5l35 87h60zM153 320q0 -53 23.5 -93.5t66.5 -60.5l165 421h-9q-49 0 -91.5 -19.5t-74.5 -51.5q-38 -37 -59 -88t-21 -108z" />
    <glyph glyph-name="sterling" unicode="&#xa3;" horiz-adv-x="664" 
d="M13 38l93 21l68 252h-88l17 63h88l34 130q14 51 35 92t49 69q35 35 76.5 53t96.5 18q74 0 122 -32.5t76 -83.5l-57 -36q-26 41 -59 64.5t-86 23.5q-37 0 -66 -13t-52 -36q-46 -46 -68 -131l-32 -118h299l-17 -63h-299l-67 -249h379l-17 -62h-536z" />
    <glyph glyph-name="yen" unicode="&#xa5;" horiz-adv-x="742" 
d="M294 125h-215l15 56h215l25 97h-214l15 56h190l-170 394h79l155 -373l357 373h88l-383 -394h185l-15 -56h-218l-25 -97h218l-16 -56h-217l-33 -125h-70z" />
    <glyph glyph-name="dieresis" unicode="&#xa8;" 
d="M244 711h84l-25 -92h-84zM421 711h84l-25 -92h-84z" />
    <glyph glyph-name="copyright" unicode="&#xa9;" horiz-adv-x="875" 
d="M433 171q-33 0 -62 10.5t-50.5 31t-34 49.5t-12.5 66q0 50 18.5 94.5t52.5 79.5q31 31 70 48.5t84 17.5q54 0 90 -23t56 -59l-44 -27q-17 27 -42 44t-61 17q-35 0 -63 -12.5t-51 -35.5q-27 -27 -42 -63t-15 -78q0 -56 32 -84t77 -28q38 0 64.5 14.5t49.5 36.5l33 -34
q-26 -26 -62.5 -45.5t-87.5 -19.5zM837 409q0 -84 -32 -162.5t-92 -138.5q-56 -57 -128 -88.5t-162 -31.5q-76 0 -137.5 25.5t-105 70t-67.5 105t-24 130.5q0 84 32 162.5t92 138.5q57 57 129 88.5t161 31.5q76 0 138 -25.5t105.5 -70t67 -105t23.5 -130.5zM124 319
q0 -62 20 -116.5t59 -95t95 -64.5t128 -24q79 0 144 28.5t116 79.5q56 56 86 128t30 155q0 61 -20 115.5t-58.5 95t-94.5 64.5t-128 24q-79 0 -144 -28.5t-117 -79.5q-55 -56 -85.5 -128t-30.5 -154z" />
    <glyph glyph-name="ordfeminine" unicode="&#xaa;" horiz-adv-x="418" 
d="M204 425q-37 0 -62.5 21.5t-25.5 56.5q0 51 38 81t97 30q27 0 52.5 -5t46.5 -11l2 7q2 5 3 13t1 13q0 27 -19 42t-59 15q-23 0 -43 -4t-40 -11l-8 41q23 8 47 13t53 5q57 0 87 -24.5t30 -67.5q0 -10 -2 -20t-4 -21l-45 -168h-48l14 50q-23 -25 -51 -40.5t-64 -15.5z
M219 462q19 0 38 7t35 19.5t28.5 29t17.5 35.5l4 13q-18 5 -40.5 9t-47.5 4q-39 0 -63.5 -19.5t-24.5 -50.5q0 -21 14.5 -34t38.5 -13zM77 348h257l-12 -46h-257z" />
    <glyph glyph-name="guillemotleft" unicode="&#xab;" horiz-adv-x="568" 
d="M53 262l2 8l230 221l43 -37l-195 -197l84 -187l-54 -28zM275 262l2 8l230 221l44 -37l-196 -197l84 -187l-53 -28z" />
    <glyph glyph-name="registered" unicode="&#xae;" horiz-adv-x="437" 
d="M316 738q36 0 66 -12.5t51 -34t32.5 -50.5t11.5 -62q0 -42 -15 -79t-44 -66t-64 -44.5t-77 -15.5q-37 0 -66.5 12.5t-50.5 34t-32.5 51t-11.5 62.5q0 42 15 79t44 66q59 59 141 59zM279 394q37 0 68 14t54 37q55 57 55 132q0 29 -9.5 55t-27.5 45.5t-44.5 30.5t-60.5 11
q-37 0 -68 -14t-54 -37q-55 -57 -55 -132q0 -29 9.5 -55t27.5 -45.5t44.5 -30.5t60.5 -11zM236 468h-33l49 184h67q21 0 34 -5t20.5 -13t10.5 -17.5t3 -17.5q0 -23 -14.5 -41t-45.5 -23l31 -67h-34l-28 65h-43zM301 560q19 0 28.5 4t14.5 9q9 9 9 23q0 27 -37 27h-39
l-17 -63h41z" />
    <glyph glyph-name="macron" unicode="&#xaf;" 
d="M220 700h325l-16 -57h-325z" />
    <glyph glyph-name="degree" unicode="&#xb0;" horiz-adv-x="405" 
d="M274 733q30 0 55 -10t43 -28t28 -43t10 -54q0 -35 -14.5 -68t-38.5 -57q-25 -24 -56.5 -38t-66.5 -14q-30 0 -55 10t-43 28t-28 43t-10 54q0 35 14.5 68t38.5 57q25 24 56.5 38t66.5 14zM239 470q23 0 44 9.5t37 24.5q17 17 27.5 40.5t10.5 49.5q0 42 -25 66.5t-64 24.5
q-23 0 -44 -10t-36 -25q-17 -17 -27.5 -40.5t-10.5 -49.5q0 -42 24.5 -66t63.5 -24z" />
    <glyph glyph-name="acute" unicode="&#xb4;" 
d="M395 764l75 -35l-145 -110h-65z" />
    <glyph glyph-name="periodcentered" unicode="&#xb7;" horiz-adv-x="266" 
d="M116 361h83l-27 -100h-84z" />
    <glyph glyph-name="cedilla" unicode="&#xb8;" 
d="M75 -127l130 137h55l-125 -168z" />
    <glyph glyph-name="ordmasculine" unicode="&#xba;" horiz-adv-x="419" 
d="M79 348h280l-12 -46h-280zM174 560q0 -43 25 -68.5t65 -25.5q23 0 44 9t38 26q17 18 28 43t11 52q0 42 -25 67.5t-65 25.5q-49 0 -82 -35q-17 -17 -28 -42.5t-11 -51.5zM435 598q0 -35 -14 -67.5t-38 -56.5t-55.5 -38t-66.5 -14q-31 0 -56.5 10.5t-43.5 28.5t-27.5 42.5
t-9.5 53.5q0 35 14 67.5t38 56.5t55.5 38t66.5 14q63 0 100 -38t37 -97z" />
    <glyph glyph-name="guillemotright" unicode="&#xbb;" horiz-adv-x="568" 
d="M513 271l-2 -9l-229 -221l-44 37l196 197l-85 188l54 27zM291 271l-2 -9l-230 -221l-43 37l195 197l-84 188l54 27z" />
    <glyph glyph-name="questiondown" unicode="&#xbf;" horiz-adv-x="569" 
d="M386 361l-7 -6q-56 -4 -102.5 -18t-79.5 -36.5t-51.5 -53t-18.5 -69.5q0 -30 11.5 -53t31 -39t46.5 -24t58 -8q60 0 110.5 26t85.5 61l40 -46q-43 -44 -104 -74t-139 -30q-49 0 -88.5 14t-67 38.5t-42 58t-14.5 72.5q0 51 21.5 91t58.5 69t87 47.5t107 26.5l43 121h44z
M461 628h-83l27 100h83z" />
    <glyph glyph-name="Agrave" unicode="&#xc0;" horiz-adv-x="802" 
d="M499 733h67l138 -733h-71l-35 198h-412l-142 -198h-77zM586 261l-71 394l-284 -394h355zM424 899l72 34l67 -129h-49z" />
    <glyph glyph-name="Aacute" unicode="&#xc1;" horiz-adv-x="802" 
d="M499 733h67l138 -733h-71l-35 198h-412l-142 -198h-77zM586 261l-71 394l-284 -394h355zM651 933l73 -34l-142 -95h-67z" />
    <glyph glyph-name="Acircumflex" unicode="&#xc2;" horiz-adv-x="802" 
d="M499 733h67l138 -733h-71l-35 198h-412l-142 -198h-77zM586 261l-71 394l-284 -394h355zM545 922h63l80 -118h-62l-60 63l-94 -63h-70z" />
    <glyph glyph-name="Atilde" unicode="&#xc3;" horiz-adv-x="802" 
d="M499 733h67l138 -733h-71l-35 198h-412l-142 -198h-77zM586 261l-71 394l-284 -394h355zM394 808q24 52 49 75.5t58 23.5q17 0 34.5 -6.5t34.5 -14.5q17 -7 32.5 -13t28.5 -6q20 0 32.5 11t28.5 37l45 -13q-25 -53 -49.5 -75.5t-58.5 -22.5q-17 0 -34.5 6.5t-34.5 13.5
q-17 8 -32 14t-28 6q-20 0 -32.5 -11.5t-29.5 -37.5z" />
    <glyph glyph-name="Adieresis" unicode="&#xc4;" horiz-adv-x="802" 
d="M499 733h67l138 -733h-71l-35 198h-412l-142 -198h-77zM586 261l-71 394l-284 -394h355zM438 891h88l-24 -87h-88zM628 891h87l-24 -87h-87z" />
    <glyph glyph-name="Aring" unicode="&#xc5;" horiz-adv-x="802" 
d="M471 695q-19 12 -30 31t-11 43t10.5 45t28 36.5t40.5 24t49 8.5q45 0 73 -25.5t28 -63.5t-24 -67t-61 -40l130 -687h-71l-35 198h-412l-142 -198h-77zM586 261l-71 394l-284 -394h355zM534 717q16 0 30.5 5.5t26 15t18 23t6.5 29.5q0 24 -16 40t-45 16q-32 0 -56 -21
t-24 -53q0 -26 16.5 -40.5t43.5 -14.5z" />
    <glyph glyph-name="AE" unicode="&#xc6;" horiz-adv-x="1107" 
d="M596 728h574l-17 -64h-436l-71 -265h389l-17 -64h-389l-73 -271h441l-17 -64h-511l54 198h-303l-170 -198h-82zM539 261l109 405h-27l-348 -405h266z" />
    <glyph glyph-name="AE" unicode="&#x1fc;" horiz-adv-x="1107" 
d="M596 728h574l-17 -64h-436l-71 -265h389l-17 -64h-389l-73 -271h441l-17 -64h-511l54 198h-303l-170 -198h-82zM539 261l109 405h-27l-348 -405h266z" />
    <glyph glyph-name="Ccedilla" unicode="&#xc7;" horiz-adv-x="778" 
d="M229 -127l113 119q-52 9 -96.5 33t-77.5 61.5t-51.5 87.5t-18.5 111q0 94 37 179t101 149q59 58 135 92.5t163 34.5q50 0 92 -11.5t76 -32.5t59.5 -49.5t43.5 -62.5l-60 -35q-17 29 -37.5 53t-47 40.5t-59 25.5t-73.5 9q-69 0 -129.5 -28t-107.5 -75
q-56 -56 -88.5 -130.5t-32.5 -155.5q0 -55 18 -99t49.5 -74.5t75 -47t94.5 -16.5q38 0 70.5 7.5t61 21t54 32.5t49.5 43l46 -45q-25 -26 -54.5 -48.5t-64.5 -39t-76.5 -26t-90.5 -9.5h-5l-108 -145z" />
    <glyph glyph-name="Egrave" unicode="&#xc8;" horiz-adv-x="689" 
d="M377 889l72 34l67 -129h-49zM235 728h518l-18 -64h-447l-72 -265h401l-17 -64h-401l-72 -271h453l-18 -64h-522z" />
    <glyph glyph-name="Eacute" unicode="&#xc9;" horiz-adv-x="689" 
d="M605 923l73 -34l-142 -95h-67zM235 728h518l-18 -64h-447l-72 -265h401l-17 -64h-401l-72 -271h453l-18 -64h-522z" />
    <glyph glyph-name="Ecircumflex" unicode="&#xca;" horiz-adv-x="689" 
d="M235 728h518l-18 -64h-447l-72 -265h401l-17 -64h-401l-72 -271h453l-18 -64h-522zM499 912h63l80 -118h-62l-60 63l-94 -63h-70z" />
    <glyph glyph-name="Edieresis" unicode="&#xcb;" horiz-adv-x="689" 
d="M391 881h88l-24 -87h-88zM581 881h87l-24 -87h-87zM235 728h518l-18 -64h-447l-72 -265h401l-17 -64h-401l-72 -271h453l-18 -64h-522z" />
    <glyph glyph-name="Igrave" unicode="&#xcc;" horiz-adv-x="307" 
d="M242 728h70l-195 -728h-70zM167 889l72 34l67 -129h-49z" />
    <glyph glyph-name="Iacute" unicode="&#xcd;" horiz-adv-x="307" 
d="M242 728h70l-195 -728h-70zM394 923l73 -34l-142 -95h-67z" />
    <glyph glyph-name="Icircumflex" unicode="&#xce;" horiz-adv-x="307" 
d="M242 728h70l-195 -728h-70zM288 912h63l80 -118h-62l-60 63l-94 -63h-70z" />
    <glyph glyph-name="Idieresis" unicode="&#xcf;" horiz-adv-x="307" 
d="M242 728h70l-195 -728h-70zM181 881h88l-24 -87h-88zM371 881h87l-24 -87h-87z" />
    <glyph glyph-name="Eth" unicode="&#xd0;" horiz-adv-x="844" 
d="M159 337h-79l16 59h79l90 332h170q89 0 162.5 -24.5t121.5 -72.5q38 -39 59 -90.5t21 -118.5q0 -84 -29.5 -155.5t-85.5 -127.5q-66 -66 -161.5 -102.5t-210.5 -36.5h-243zM229 337l-73 -273h165q95 0 174 31t137 88q45 46 69.5 105.5t24.5 129.5q0 54 -16.5 96t-47.5 72
q-38 38 -97 58t-134 20h-113l-73 -268h228l-16 -59h-228z" />
    <glyph glyph-name="Ntilde" unicode="&#xd1;" horiz-adv-x="829" 
d="M397 795q24 52 49 75.5t58 23.5q17 0 34.5 -6.5t34.5 -14.5q17 -7 32.5 -13t28.5 -6q20 0 32.5 11t28.5 37l45 -13q-25 -53 -49.5 -75.5t-58.5 -22.5q-17 0 -34.5 6.5t-34.5 13.5q-17 8 -32 14t-28 6q-20 0 -32.5 -11.5t-29.5 -37.5zM235 728h65l310 -611l165 611h68
l-196 -728h-54l-318 625l-167 -625h-68z" />
    <glyph glyph-name="Ograve" unicode="&#xd2;" horiz-adv-x="890" 
d="M447 899l72 34l67 -129h-49zM523 740q70 0 128.5 -24t100.5 -66.5t65 -100t23 -123.5q0 -89 -35.5 -171.5t-97.5 -144.5q-57 -57 -130.5 -90t-158.5 -33q-70 0 -128 24t-100 66.5t-65.5 100t-23.5 123.5q0 89 36 171.5t98 144.5q57 57 130 90t158 33zM421 50
q69 0 128 27.5t104 72.5q54 54 84 126t30 148q0 54 -17.5 100t-50 80t-78 53.5t-101.5 19.5q-69 0 -127.5 -27.5t-104.5 -72.5q-54 -54 -84 -126t-30 -148q0 -54 17.5 -100t49.5 -80t78 -53.5t102 -19.5z" />
    <glyph glyph-name="Oacute" unicode="&#xd3;" horiz-adv-x="890" 
d="M673 933l73 -34l-142 -95h-67zM523 740q70 0 128.5 -24t100.5 -66.5t65 -100t23 -123.5q0 -89 -35.5 -171.5t-97.5 -144.5q-57 -57 -130.5 -90t-158.5 -33q-70 0 -128 24t-100 66.5t-65.5 100t-23.5 123.5q0 89 36 171.5t98 144.5q57 57 130 90t158 33zM421 50
q69 0 128 27.5t104 72.5q54 54 84 126t30 148q0 54 -17.5 100t-50 80t-78 53.5t-101.5 19.5q-69 0 -127.5 -27.5t-104.5 -72.5q-54 -54 -84 -126t-30 -148q0 -54 17.5 -100t49.5 -80t78 -53.5t102 -19.5z" />
    <glyph glyph-name="Ocircumflex" unicode="&#xd4;" horiz-adv-x="890" 
d="M523 740q70 0 128.5 -24t100.5 -66.5t65 -100t23 -123.5q0 -89 -35.5 -171.5t-97.5 -144.5q-57 -57 -130.5 -90t-158.5 -33q-70 0 -128 24t-100 66.5t-65.5 100t-23.5 123.5q0 89 36 171.5t98 144.5q57 57 130 90t158 33zM421 50q69 0 128 27.5t104 72.5q54 54 84 126
t30 148q0 54 -17.5 100t-50 80t-78 53.5t-101.5 19.5q-69 0 -127.5 -27.5t-104.5 -72.5q-54 -54 -84 -126t-30 -148q0 -54 17.5 -100t49.5 -80t78 -53.5t102 -19.5zM568 922h63l80 -118h-62l-60 63l-94 -63h-70z" />
    <glyph glyph-name="Otilde" unicode="&#xd5;" horiz-adv-x="890" 
d="M418 808q24 52 49 75.5t58 23.5q17 0 34.5 -6.5t34.5 -14.5q17 -7 32.5 -13t28.5 -6q20 0 32.5 11t28.5 37l45 -13q-25 -53 -49.5 -75.5t-58.5 -22.5q-17 0 -34.5 6.5t-34.5 13.5q-17 8 -32 14t-28 6q-20 0 -32.5 -11.5t-29.5 -37.5zM523 740q70 0 128.5 -24t100.5 -66.5
t65 -100t23 -123.5q0 -89 -35.5 -171.5t-97.5 -144.5q-57 -57 -130.5 -90t-158.5 -33q-70 0 -128 24t-100 66.5t-65.5 100t-23.5 123.5q0 89 36 171.5t98 144.5q57 57 130 90t158 33zM421 50q69 0 128 27.5t104 72.5q54 54 84 126t30 148q0 54 -17.5 100t-50 80t-78 53.5
t-101.5 19.5q-69 0 -127.5 -27.5t-104.5 -72.5q-54 -54 -84 -126t-30 -148q0 -54 17.5 -100t49.5 -80t78 -53.5t102 -19.5z" />
    <glyph glyph-name="Odieresis" unicode="&#xd6;" horiz-adv-x="890" 
d="M461 891h88l-24 -87h-88zM651 891h87l-24 -87h-87zM523 740q70 0 128.5 -24t100.5 -66.5t65 -100t23 -123.5q0 -89 -35.5 -171.5t-97.5 -144.5q-57 -57 -130.5 -90t-158.5 -33q-70 0 -128 24t-100 66.5t-65.5 100t-23.5 123.5q0 89 36 171.5t98 144.5q57 57 130 90
t158 33zM421 50q69 0 128 27.5t104 72.5q54 54 84 126t30 148q0 54 -17.5 100t-50 80t-78 53.5t-101.5 19.5q-69 0 -127.5 -27.5t-104.5 -72.5q-54 -54 -84 -126t-30 -148q0 -54 17.5 -100t49.5 -80t78 -53.5t102 -19.5z" />
    <glyph glyph-name="Oslash" unicode="&#xd8;" horiz-adv-x="890" 
d="M523 740q74 0 134 -26.5t102 -72.5l107 92h84l-158 -135q23 -37 35.5 -80.5t12.5 -91.5q0 -89 -35.5 -171.5t-97.5 -144.5q-57 -57 -130.5 -90t-158.5 -33q-73 0 -133 26t-102 71l-108 -90h-84l158 134q-23 37 -35.5 80.5t-12.5 92.5q0 89 36 171.5t98 144.5
q57 57 130 90t158 33zM173 302q0 -73 30 -130l504 427q-32 37 -79 58t-107 21q-69 0 -128.5 -27.5t-104.5 -72.5q-54 -54 -84.5 -126.5t-30.5 -149.5zM421 49q69 0 128 27.5t105 73.5q54 54 84 126t30 149q0 36 -8 68t-22 60l-504 -426q32 -37 79.5 -57.5t107.5 -20.5z" />
    <glyph glyph-name="Ugrave" unicode="&#xd9;" horiz-adv-x="799" 
d="M401 886l72 34l67 -129h-49zM367 -11q-65 0 -114.5 17t-82.5 48t-49.5 73.5t-16.5 92.5q0 57 15 113l105 395h70l-111 -419q-5 -16 -7.5 -37.5t-2.5 -44.5q0 -37 12 -69t37 -55.5t62.5 -37t88.5 -13.5q47 0 90.5 18t78.5 53q29 29 54.5 75t42.5 109l113 421h70l-116 -434
q-37 -136 -115 -214q-45 -45 -101.5 -68t-122.5 -23z" />
    <glyph glyph-name="Uacute" unicode="&#xda;" horiz-adv-x="799" 
d="M628 920l73 -34l-142 -95h-67zM367 -11q-65 0 -114.5 17t-82.5 48t-49.5 73.5t-16.5 92.5q0 57 15 113l105 395h70l-111 -419q-5 -16 -7.5 -37.5t-2.5 -44.5q0 -37 12 -69t37 -55.5t62.5 -37t88.5 -13.5q47 0 90.5 18t78.5 53q29 29 54.5 75t42.5 109l113 421h70
l-116 -434q-37 -136 -115 -214q-45 -45 -101.5 -68t-122.5 -23z" />
    <glyph glyph-name="Ucircumflex" unicode="&#xdb;" horiz-adv-x="799" 
d="M367 -11q-65 0 -114.5 17t-82.5 48t-49.5 73.5t-16.5 92.5q0 57 15 113l105 395h70l-111 -419q-5 -16 -7.5 -37.5t-2.5 -44.5q0 -37 12 -69t37 -55.5t62.5 -37t88.5 -13.5q47 0 90.5 18t78.5 53q29 29 54.5 75t42.5 109l113 421h70l-116 -434q-37 -136 -115 -214
q-45 -45 -101.5 -68t-122.5 -23zM522 909h63l80 -118h-62l-60 63l-94 -63h-70z" />
    <glyph glyph-name="Udieresis" unicode="&#xdc;" horiz-adv-x="799" 
d="M415 878h88l-24 -87h-88zM605 878h87l-24 -87h-87zM367 -11q-65 0 -114.5 17t-82.5 48t-49.5 73.5t-16.5 92.5q0 57 15 113l105 395h70l-111 -419q-5 -16 -7.5 -37.5t-2.5 -44.5q0 -37 12 -69t37 -55.5t62.5 -37t88.5 -13.5q47 0 90.5 18t78.5 53q29 29 54.5 75t42.5 109
l113 421h70l-116 -434q-37 -136 -115 -214q-45 -45 -101.5 -68t-122.5 -23z" />
    <glyph glyph-name="Yacute" unicode="&#xdd;" horiz-adv-x="704" 
d="M318 294l-184 434h77l155 -378l359 378h91l-432 -448l-75 -280h-70zM576 920l73 -34l-142 -95h-67z" />
    <glyph glyph-name="Thorn" unicode="&#xde;" horiz-adv-x="710" 
d="M235 728h69l-33 -128h157q68 0 119.5 -16.5t85.5 -50.5q51 -51 51 -133q0 -103 -67 -168q-47 -47 -121 -71t-171 -24h-178l-37 -137h-70zM328 199q82 0 142 19t95 54q48 48 48 124q0 56 -35 92q-50 48 -152 48h-172l-91 -337h165z" />
    <glyph glyph-name="germandbls" unicode="&#xdf;" horiz-adv-x="659" 
d="M251 55q68 0 117 13.5t80 35t45.5 50t14.5 59.5q0 55 -45.5 88.5t-132.5 48.5l15 55q116 28 167 74.5t51 111.5q0 51 -35.5 83t-99.5 32q-72 0 -122.5 -53t-75.5 -147l-135 -506h-67l139 520q14 54 37 98.5t54 75.5q35 35 79.5 53.5t95.5 18.5q44 0 80.5 -13t63 -35.5
t41 -54t14.5 -68.5q0 -45 -16.5 -80t-45.5 -61.5t-67.5 -45t-82.5 -30.5q33 -9 61.5 -23t49.5 -34.5t33.5 -47.5t12.5 -61q0 -46 -22.5 -85.5t-66 -68.5t-107 -45t-145.5 -15z" />
    <glyph glyph-name="agrave" unicode="&#xe0;" horiz-adv-x="608" 
d="M199 -12q-33 0 -64 9.5t-55 28.5t-38.5 47t-14.5 64q0 38 13.5 70t38.5 57q32 32 80 49t108 17q55 0 106 -9t91 -20l3 13q3 12 5.5 26.5t2.5 25.5q0 56 -38.5 86t-113.5 30q-44 0 -80 -7.5t-73 -21.5l-12 58q40 14 81 22.5t92 8.5q100 0 154.5 -44t54.5 -122
q0 -33 -11 -72l-81 -304h-65l23 87q-38 -44 -89 -71.5t-118 -27.5zM217 44q36 0 71.5 12t65.5 34t53 52.5t33 68.5l11 42q-38 10 -85 17t-101 7q-43 0 -76.5 -12.5t-56.5 -34.5q-35 -35 -35 -85q0 -46 32.5 -73.5t87.5 -27.5zM262 729l75 35l56 -145h-47z" />
    <glyph glyph-name="aacute" unicode="&#xe1;" horiz-adv-x="608" 
d="M199 -12q-33 0 -64 9.5t-55 28.5t-38.5 47t-14.5 64q0 38 13.5 70t38.5 57q32 32 80 49t108 17q55 0 106 -9t91 -20l3 13q3 12 5.5 26.5t2.5 25.5q0 56 -38.5 86t-113.5 30q-44 0 -80 -7.5t-73 -21.5l-12 58q40 14 81 22.5t92 8.5q100 0 154.5 -44t54.5 -122
q0 -33 -11 -72l-81 -304h-65l23 87q-38 -44 -89 -71.5t-118 -27.5zM217 44q36 0 71.5 12t65.5 34t53 52.5t33 68.5l11 42q-38 10 -85 17t-101 7q-43 0 -76.5 -12.5t-56.5 -34.5q-35 -35 -35 -85q0 -46 32.5 -73.5t87.5 -27.5zM478 764l75 -35l-145 -110h-65z" />
    <glyph glyph-name="acircumflex" unicode="&#xe2;" horiz-adv-x="608" 
d="M199 -12q-33 0 -64 9.5t-55 28.5t-38.5 47t-14.5 64q0 38 13.5 70t38.5 57q32 32 80 49t108 17q55 0 106 -9t91 -20l3 13q3 12 5.5 26.5t2.5 25.5q0 56 -38.5 86t-113.5 30q-44 0 -80 -7.5t-73 -21.5l-12 58q40 14 81 22.5t92 8.5q100 0 154.5 -44t54.5 -122
q0 -33 -11 -72l-81 -304h-65l23 87q-38 -44 -89 -71.5t-118 -27.5zM217 44q36 0 71.5 12t65.5 34t53 52.5t33 68.5l11 42q-38 10 -85 17t-101 7q-43 0 -76.5 -12.5t-56.5 -34.5q-35 -35 -35 -85q0 -46 32.5 -73.5t87.5 -27.5zM382 751h58l72 -132h-56l-56 70l-100 -70h-61z
" />
    <glyph glyph-name="atilde" unicode="&#xe3;" horiz-adv-x="608" 
d="M199 -12q-33 0 -64 9.5t-55 28.5t-38.5 47t-14.5 64q0 38 13.5 70t38.5 57q32 32 80 49t108 17q55 0 106 -9t91 -20l3 13q3 12 5.5 26.5t2.5 25.5q0 56 -38.5 86t-113.5 30q-44 0 -80 -7.5t-73 -21.5l-12 58q40 14 81 22.5t92 8.5q100 0 154.5 -44t54.5 -122
q0 -33 -11 -72l-81 -304h-65l23 87q-38 -44 -89 -71.5t-118 -27.5zM217 44q36 0 71.5 12t65.5 34t53 52.5t33 68.5l11 42q-38 10 -85 17t-101 7q-43 0 -76.5 -12.5t-56.5 -34.5q-35 -35 -35 -85q0 -46 32.5 -73.5t87.5 -27.5zM564 722q-13 -29 -25 -48.5t-25 -31.5
t-27.5 -17.5t-32.5 -5.5q-17 0 -33.5 6.5t-35.5 15.5q-16 8 -31 14t-28 6q-20 0 -33 -11.5t-29 -40.5l-44 12q26 58 50.5 81t59.5 23q17 0 34 -7t35 -15q16 -8 31.5 -14t27.5 -6q20 0 33 11t30 40z" />
    <glyph glyph-name="adieresis" unicode="&#xe4;" horiz-adv-x="608" 
d="M199 -12q-33 0 -64 9.5t-55 28.5t-38.5 47t-14.5 64q0 38 13.5 70t38.5 57q32 32 80 49t108 17q55 0 106 -9t91 -20l3 13q3 12 5.5 26.5t2.5 25.5q0 56 -38.5 86t-113.5 30q-44 0 -80 -7.5t-73 -21.5l-12 58q40 14 81 22.5t92 8.5q100 0 154.5 -44t54.5 -122
q0 -33 -11 -72l-81 -304h-65l23 87q-38 -44 -89 -71.5t-118 -27.5zM217 44q36 0 71.5 12t65.5 34t53 52.5t33 68.5l11 42q-38 10 -85 17t-101 7q-43 0 -76.5 -12.5t-56.5 -34.5q-35 -35 -35 -85q0 -46 32.5 -73.5t87.5 -27.5zM274 711h84l-25 -92h-84zM451 711h84l-25 -92
h-84z" />
    <glyph glyph-name="aring" unicode="&#xe5;" horiz-adv-x="608" 
d="M199 -12q-33 0 -64 9.5t-55 28.5t-38.5 47t-14.5 64q0 38 13.5 70t38.5 57q32 32 80 49t108 17q55 0 106 -9t91 -20l3 13q3 12 5.5 26.5t2.5 25.5q0 56 -38.5 86t-113.5 30q-44 0 -80 -7.5t-73 -21.5l-12 58q40 14 81 22.5t92 8.5q100 0 154.5 -44t54.5 -122
q0 -33 -11 -72l-81 -304h-65l23 87q-38 -44 -89 -71.5t-118 -27.5zM217 44q36 0 71.5 12t65.5 34t53 52.5t33 68.5l11 42q-38 10 -85 17t-101 7q-43 0 -76.5 -12.5t-56.5 -34.5q-35 -35 -35 -85q0 -46 32.5 -73.5t87.5 -27.5zM523 733q0 -24 -10.5 -45t-27.5 -36.5
t-39.5 -25t-47.5 -9.5q-47 0 -76 27.5t-29 69.5q0 24 10 45t27 36.5t39.5 25t47.5 9.5q48 0 77 -27.5t29 -69.5zM334 716q0 -27 17 -45t48 -18q17 0 32 6t26.5 16.5t18 25t6.5 30.5q0 27 -17.5 45t-48.5 18q-17 0 -31.5 -6t-26 -16.5t-18 -25t-6.5 -30.5z" />
    <glyph glyph-name="ae" unicode="&#xe6;" horiz-adv-x="1013" 
d="M686 -12q-80 0 -133.5 34.5t-79.5 91.5q-53 -56 -120 -91t-148 -35q-36 0 -68 9.5t-56.5 28t-39 46.5t-14.5 65q0 38 13.5 70t38.5 57q32 32 80 49t108 17q55 0 106 -9t91 -20l3 13q3 12 5.5 26.5t2.5 25.5q0 56 -38.5 86t-113.5 30q-44 0 -80 -7.5t-73 -21.5l-12 58
q40 14 81 22.5t92 8.5q82 0 133.5 -31t65.5 -88q21 27 46 49.5t54.5 39t61.5 26t67 9.5q50 0 88.5 -16.5t64 -44.5t38.5 -65t13 -79q0 -52 -16 -98h-429q-1 -8 -1 -14v-14q0 -77 46 -123.5t123 -46.5q56 0 95.5 18.5t77.5 48.5l36 -45q-41 -34 -92 -57t-117 -23zM222 44
q66 0 124 32t112 89q-4 21 -4 42.5t2 43.5q-35 11 -86.5 18.5t-104.5 7.5q-43 0 -76.5 -12.5t-56.5 -34.5q-35 -35 -35 -85q0 -46 33.5 -73.5t91.5 -27.5zM600 421q-51 -53 -71 -123h363q5 15 5 42q0 30 -8.5 57t-25.5 47t-44 32t-63 12q-47 0 -86 -18.5t-70 -48.5z" />
    <glyph glyph-name="ae" unicode="&#x1fd;" horiz-adv-x="1013" 
d="M686 -12q-80 0 -133.5 34.5t-79.5 91.5q-53 -56 -120 -91t-148 -35q-36 0 -68 9.5t-56.5 28t-39 46.5t-14.5 65q0 38 13.5 70t38.5 57q32 32 80 49t108 17q55 0 106 -9t91 -20l3 13q3 12 5.5 26.5t2.5 25.5q0 56 -38.5 86t-113.5 30q-44 0 -80 -7.5t-73 -21.5l-12 58
q40 14 81 22.5t92 8.5q82 0 133.5 -31t65.5 -88q21 27 46 49.5t54.5 39t61.5 26t67 9.5q50 0 88.5 -16.5t64 -44.5t38.5 -65t13 -79q0 -52 -16 -98h-429q-1 -8 -1 -14v-14q0 -77 46 -123.5t123 -46.5q56 0 95.5 18.5t77.5 48.5l36 -45q-41 -34 -92 -57t-117 -23zM222 44
q66 0 124 32t112 89q-4 21 -4 42.5t2 43.5q-35 11 -86.5 18.5t-104.5 7.5q-43 0 -76.5 -12.5t-56.5 -34.5q-35 -35 -35 -85q0 -46 33.5 -73.5t91.5 -27.5zM600 421q-51 -53 -71 -123h363q5 15 5 42q0 30 -8.5 57t-25.5 47t-44 32t-63 12q-47 0 -86 -18.5t-70 -48.5z" />
    <glyph glyph-name="ccedilla" unicode="&#xe7;" horiz-adv-x="597" 
d="M122 -127l114 121q-37 8 -69.5 26.5t-57 47.5t-38.5 67t-14 85q0 67 26.5 127.5t71.5 105.5q43 43 98.5 68.5t117.5 25.5q42 0 75.5 -10.5t59.5 -28.5t45 -41t31 -48l-55 -34q-12 21 -26.5 39t-33.5 32t-44 22t-56 8q-45 0 -86 -19.5t-73 -51.5q-37 -37 -59 -87t-22 -106
q0 -42 14 -74.5t37.5 -54.5t53.5 -33.5t63 -11.5q50 0 89.5 20t75.5 53l42 -44q-42 -39 -93 -64t-117 -25h-2l-108 -146z" />
    <glyph glyph-name="egrave" unicode="&#xe8;" horiz-adv-x="622" 
d="M127 244q-1 -7 -1 -14v-14q0 -37 11.5 -68.5t33 -54t51.5 -35t68 -12.5q55 0 97 18.5t80 48.5l36 -45q-42 -35 -93.5 -57.5t-123.5 -22.5q-51 0 -93 16.5t-72.5 46.5t-47 71.5t-16.5 91.5q0 67 27 130.5t75 111.5q42 42 94.5 66.5t113.5 24.5q51 0 89 -16.5t64 -44.5
t39 -65t13 -79q0 -53 -17 -98h-428zM209 421q-26 -26 -43.5 -57t-28.5 -66h364q2 7 3 17.5t1 24.5q0 30 -8.5 57t-25.5 47t-44 32t-63 12q-46 0 -85.5 -18.5t-69.5 -48.5zM291 729l75 35l56 -145h-47z" />
    <glyph glyph-name="eacute" unicode="&#xe9;" horiz-adv-x="622" 
d="M507 764l75 -35l-145 -110h-65zM127 244q-1 -7 -1 -14v-14q0 -37 11.5 -68.5t33 -54t51.5 -35t68 -12.5q55 0 97 18.5t80 48.5l36 -45q-42 -35 -93.5 -57.5t-123.5 -22.5q-51 0 -93 16.5t-72.5 46.5t-47 71.5t-16.5 91.5q0 67 27 130.5t75 111.5q42 42 94.5 66.5
t113.5 24.5q51 0 89 -16.5t64 -44.5t39 -65t13 -79q0 -53 -17 -98h-428zM209 421q-26 -26 -43.5 -57t-28.5 -66h364q2 7 3 17.5t1 24.5q0 30 -8.5 57t-25.5 47t-44 32t-63 12q-46 0 -85.5 -18.5t-69.5 -48.5z" />
    <glyph glyph-name="ecircumflex" unicode="&#xea;" horiz-adv-x="622" 
d="M410 751h58l72 -132h-56l-56 70l-100 -70h-61zM127 244q-1 -7 -1 -14v-14q0 -37 11.5 -68.5t33 -54t51.5 -35t68 -12.5q55 0 97 18.5t80 48.5l36 -45q-42 -35 -93.5 -57.5t-123.5 -22.5q-51 0 -93 16.5t-72.5 46.5t-47 71.5t-16.5 91.5q0 67 27 130.5t75 111.5
q42 42 94.5 66.5t113.5 24.5q51 0 89 -16.5t64 -44.5t39 -65t13 -79q0 -53 -17 -98h-428zM209 421q-26 -26 -43.5 -57t-28.5 -66h364q2 7 3 17.5t1 24.5q0 30 -8.5 57t-25.5 47t-44 32t-63 12q-46 0 -85.5 -18.5t-69.5 -48.5z" />
    <glyph glyph-name="edieresis" unicode="&#xeb;" horiz-adv-x="622" 
d="M303 711h84l-25 -92h-84zM480 711h84l-25 -92h-84zM127 244q-1 -7 -1 -14v-14q0 -37 11.5 -68.5t33 -54t51.5 -35t68 -12.5q55 0 97 18.5t80 48.5l36 -45q-42 -35 -93.5 -57.5t-123.5 -22.5q-51 0 -93 16.5t-72.5 46.5t-47 71.5t-16.5 91.5q0 67 27 130.5t75 111.5
q42 42 94.5 66.5t113.5 24.5q51 0 89 -16.5t64 -44.5t39 -65t13 -79q0 -53 -17 -98h-428zM209 421q-26 -26 -43.5 -57t-28.5 -66h364q2 7 3 17.5t1 24.5q0 30 -8.5 57t-25.5 47t-44 32t-63 12q-46 0 -85.5 -18.5t-69.5 -48.5z" />
    <glyph glyph-name="igrave" unicode="&#xec;" horiz-adv-x="280" 
d="M178 534h67l-143 -534h-67zM117 729l75 35l56 -145h-47z" />
    <glyph glyph-name="iacute" unicode="&#xed;" horiz-adv-x="280" 
d="M334 764l75 -35l-145 -110h-65zM178 534h67l-143 -534h-67z" />
    <glyph glyph-name="icircumflex" unicode="&#xee;" horiz-adv-x="280" 
d="M237 751h58l72 -132h-56l-56 70l-100 -70h-61zM178 534h67l-143 -534h-67z" />
    <glyph glyph-name="idieresis" unicode="&#xef;" horiz-adv-x="280" 
d="M130 711h84l-25 -92h-84zM307 711h84l-25 -92h-84zM178 534h67l-143 -534h-67z" />
    <glyph glyph-name="eth" unicode="&#xf0;" horiz-adv-x="664" 
d="M256 639l134 56q-12 16 -25 32t-27 32h85q8 -10 15 -19.5t14 -19.5l115 48l21 -46l-106 -45q56 -84 92.5 -173.5t36.5 -178.5q0 -79 -25 -139t-73 -108q-42 -42 -97 -66t-121 -24q-54 0 -98 18t-75 50.5t-48 76.5t-17 96q0 65 24.5 121t66.5 98q39 40 91 63t109 23
q68 0 115 -30t79 -76q-14 43 -44.5 102t-75.5 122l-144 -60zM301 48q47 0 89 19t76 53q34 33 54 78t20 96q0 39 -13.5 72t-38 58t-59 39t-76.5 14q-45 0 -84 -17.5t-69 -46.5q-35 -35 -54 -82t-19 -99q0 -41 12 -75t34.5 -58t54.5 -37.5t73 -13.5z" />
    <glyph glyph-name="ntilde" unicode="&#xf1;" horiz-adv-x="649" 
d="M170 534h67l-24 -92q38 44 83.5 74.5t109.5 30.5q39 0 70.5 -12t54 -34t35 -53t12.5 -69q0 -18 -3.5 -38.5t-8.5 -40.5l-79 -300h-67l81 304q4 14 6 31.5t2 31.5q0 56 -33.5 87.5t-93.5 31.5q-33 0 -65 -13.5t-60 -38t-49.5 -58.5t-32.5 -74l-80 -302h-68zM601 722
q-13 -29 -25 -48.5t-25 -31.5t-27.5 -17.5t-32.5 -5.5q-17 0 -33.5 6.5t-35.5 15.5q-16 8 -31 14t-28 6q-20 0 -33 -11.5t-29 -40.5l-44 12q26 58 50.5 81t59.5 23q17 0 34 -7t35 -15q16 -8 31.5 -14t27.5 -6q20 0 33 11t30 40z" />
    <glyph glyph-name="ograve" unicode="&#xf2;" horiz-adv-x="672" 
d="M374 547q54 0 98.5 -18t76 -50t49 -75.5t17.5 -95.5q0 -64 -26 -122.5t-71 -103.5q-43 -43 -99.5 -68.5t-119.5 -25.5q-54 0 -98.5 18t-76 49.5t-49 75t-17.5 95.5q0 64 25.5 122.5t70.5 103.5q44 43 100.5 69t119.5 26zM304 48q46 0 87.5 20t73.5 52q37 36 58.5 84.5
t21.5 101.5q0 86 -49 133t-128 47q-45 0 -87 -19.5t-74 -51.5q-37 -37 -58 -85.5t-21 -101.5q0 -43 13 -76.5t36 -56.5t55.5 -35t71.5 -12zM306 729l75 35l56 -145h-47z" />
    <glyph glyph-name="oacute" unicode="&#xf3;" horiz-adv-x="672" 
d="M522 764l75 -35l-145 -110h-65zM374 547q54 0 98.5 -18t76 -50t49 -75.5t17.5 -95.5q0 -64 -26 -122.5t-71 -103.5q-43 -43 -99.5 -68.5t-119.5 -25.5q-54 0 -98.5 18t-76 49.5t-49 75t-17.5 95.5q0 64 25.5 122.5t70.5 103.5q44 43 100.5 69t119.5 26zM304 48
q46 0 87.5 20t73.5 52q37 36 58.5 84.5t21.5 101.5q0 86 -49 133t-128 47q-45 0 -87 -19.5t-74 -51.5q-37 -37 -58 -85.5t-21 -101.5q0 -43 13 -76.5t36 -56.5t55.5 -35t71.5 -12z" />
    <glyph glyph-name="ocircumflex" unicode="&#xf4;" horiz-adv-x="672" 
d="M426 751h58l72 -132h-56l-56 70l-100 -70h-61zM374 547q54 0 98.5 -18t76 -50t49 -75.5t17.5 -95.5q0 -64 -26 -122.5t-71 -103.5q-43 -43 -99.5 -68.5t-119.5 -25.5q-54 0 -98.5 18t-76 49.5t-49 75t-17.5 95.5q0 64 25.5 122.5t70.5 103.5q44 43 100.5 69t119.5 26z
M304 48q46 0 87.5 20t73.5 52q37 36 58.5 84.5t21.5 101.5q0 86 -49 133t-128 47q-45 0 -87 -19.5t-74 -51.5q-37 -37 -58 -85.5t-21 -101.5q0 -43 13 -76.5t36 -56.5t55.5 -35t71.5 -12z" />
    <glyph glyph-name="otilde" unicode="&#xf5;" horiz-adv-x="672" 
d="M374 547q54 0 98.5 -18t76 -50t49 -75.5t17.5 -95.5q0 -64 -26 -122.5t-71 -103.5q-43 -43 -99.5 -68.5t-119.5 -25.5q-54 0 -98.5 18t-76 49.5t-49 75t-17.5 95.5q0 64 25.5 122.5t70.5 103.5q44 43 100.5 69t119.5 26zM304 48q46 0 87.5 20t73.5 52q37 36 58.5 84.5
t21.5 101.5q0 86 -49 133t-128 47q-45 0 -87 -19.5t-74 -51.5q-37 -37 -58 -85.5t-21 -101.5q0 -43 13 -76.5t36 -56.5t55.5 -35t71.5 -12zM610 722q-13 -29 -25 -48.5t-25 -31.5t-27.5 -17.5t-32.5 -5.5q-17 0 -33.5 6.5t-35.5 15.5q-16 8 -31 14t-28 6q-20 0 -33 -11.5
t-29 -40.5l-44 12q26 58 50.5 81t59.5 23q17 0 34 -7t35 -15q16 -8 31.5 -14t27.5 -6q20 0 33 11t30 40z" />
    <glyph glyph-name="odieresis" unicode="&#xf6;" horiz-adv-x="672" 
d="M319 711h84l-25 -92h-84zM496 711h84l-25 -92h-84zM374 547q54 0 98.5 -18t76 -50t49 -75.5t17.5 -95.5q0 -64 -26 -122.5t-71 -103.5q-43 -43 -99.5 -68.5t-119.5 -25.5q-54 0 -98.5 18t-76 49.5t-49 75t-17.5 95.5q0 64 25.5 122.5t70.5 103.5q44 43 100.5 69t119.5 26
zM304 48q46 0 87.5 20t73.5 52q37 36 58.5 84.5t21.5 101.5q0 86 -49 133t-128 47q-45 0 -87 -19.5t-74 -51.5q-37 -37 -58 -85.5t-21 -101.5q0 -43 13 -76.5t36 -56.5t55.5 -35t71.5 -12z" />
    <glyph glyph-name="oslash" unicode="&#xf8;" horiz-adv-x="672" 
d="M374 547q55 0 99.5 -18.5t76.5 -51.5l76 63h80l-125 -104q34 -56 34 -128q0 -64 -26 -122.5t-71 -103.5q-43 -43 -99.5 -68.5t-119.5 -25.5q-56 0 -100.5 18t-76.5 51l-75 -63h-80l124 103q-16 28 -24.5 60t-8.5 69q0 64 25.5 122.5t70.5 103.5q44 43 100.5 69t119.5 26z
M369 486q-46 0 -88 -19.5t-74 -51.5q-37 -37 -58.5 -85.5t-21.5 -101.5q0 -49 17 -88l356 296q-47 50 -131 50zM545 306q0 49 -17 88l-356 -296q47 -50 131 -50q47 0 89 19.5t74 51.5q37 37 58 85.5t21 101.5z" />
    <glyph glyph-name="ugrave" unicode="&#xf9;" horiz-adv-x="647" 
d="M241 -12q-39 0 -71 12t-54.5 33.5t-34.5 52.5t-12 69q0 19 4 39.5t9 40.5l79 299h67l-82 -304q-4 -14 -6 -31.5t-2 -31.5q0 -56 34 -87.5t94 -31.5q32 0 64.5 13.5t60 38.5t49 58.5t32.5 74.5l81 301h67l-143 -534h-67l24 93q-18 -22 -38.5 -41t-44 -33.5t-51 -22.5
t-59.5 -8zM289 729l75 35l56 -145h-47z" />
    <glyph glyph-name="uacute" unicode="&#xfa;" horiz-adv-x="647" 
d="M506 764l75 -35l-145 -110h-65zM241 -12q-39 0 -71 12t-54.5 33.5t-34.5 52.5t-12 69q0 19 4 39.5t9 40.5l79 299h67l-82 -304q-4 -14 -6 -31.5t-2 -31.5q0 -56 34 -87.5t94 -31.5q32 0 64.5 13.5t60 38.5t49 58.5t32.5 74.5l81 301h67l-143 -534h-67l24 93
q-18 -22 -38.5 -41t-44 -33.5t-51 -22.5t-59.5 -8z" />
    <glyph glyph-name="ucircumflex" unicode="&#xfb;" horiz-adv-x="647" 
d="M409 751h58l72 -132h-56l-56 70l-100 -70h-61zM241 -12q-39 0 -71 12t-54.5 33.5t-34.5 52.5t-12 69q0 19 4 39.5t9 40.5l79 299h67l-82 -304q-4 -14 -6 -31.5t-2 -31.5q0 -56 34 -87.5t94 -31.5q32 0 64.5 13.5t60 38.5t49 58.5t32.5 74.5l81 301h67l-143 -534h-67
l24 93q-18 -22 -38.5 -41t-44 -33.5t-51 -22.5t-59.5 -8z" />
    <glyph glyph-name="udieresis" unicode="&#xfc;" horiz-adv-x="647" 
d="M301 711h84l-25 -92h-84zM478 711h84l-25 -92h-84zM241 -12q-39 0 -71 12t-54.5 33.5t-34.5 52.5t-12 69q0 19 4 39.5t9 40.5l79 299h67l-82 -304q-4 -14 -6 -31.5t-2 -31.5q0 -56 34 -87.5t94 -31.5q32 0 64.5 13.5t60 38.5t49 58.5t32.5 74.5l81 301h67l-143 -534h-67
l24 93q-18 -22 -38.5 -41t-44 -33.5t-51 -22.5t-59.5 -8z" />
    <glyph glyph-name="yacute" unicode="&#xfd;" horiz-adv-x="606" 
d="M96 534h71l81 -459l302 459h79l-373 -552q-57 -84 -108 -118t-111 -34q-63 0 -115 37l36 51q18 -13 39.5 -21t47.5 -8q37 0 73 24t80 87zM470 764l75 -35l-145 -110h-65z" />
    <glyph glyph-name="thorn" unicode="&#xfe;" horiz-adv-x="695" 
d="M211 437q39 46 91 78t120 32q46 0 85 -16.5t67.5 -46.5t44.5 -71.5t16 -91.5q0 -75 -27 -138.5t-73 -108.5q-41 -42 -92.5 -64.5t-108.5 -22.5q-42 0 -75.5 11.5t-59 31t-43 45t-27.5 52.5l-79 -293h-67l248 925h67zM329 48q46 0 85.5 17.5t69.5 47.5q38 38 59 90.5
t21 110.5q0 39 -11.5 70.5t-32.5 54t-50 35t-63 12.5q-46 0 -90 -20.5t-79 -55.5q-37 -37 -59.5 -85.5t-22.5 -101.5q0 -37 12.5 -69t35.5 -55.5t54.5 -37t70.5 -13.5z" />
    <glyph glyph-name="ydieresis" unicode="&#xff;" horiz-adv-x="606" 
d="M96 534h71l81 -459l302 459h79l-373 -552q-57 -84 -108 -118t-111 -34q-63 0 -115 37l36 51q18 -13 39.5 -21t47.5 -8q37 0 73 24t80 87zM265 711h84l-25 -92h-84zM442 711h84l-25 -92h-84z" />
    <glyph glyph-name="dotlessi" unicode="&#x131;" horiz-adv-x="280" 
d="M178 534h67l-143 -534h-67z" />
    <glyph glyph-name="Lslash" unicode="&#x141;" horiz-adv-x="689" 
d="M108 361l84 23l92 344h70l-86 -322l247 70l-18 -65l-247 -70l-74 -277h418l-18 -64h-487l85 319l-83 -23z" />
    <glyph glyph-name="lslash" unicode="&#x142;" horiz-adv-x="341" 
d="M91 382l84 24l95 353h67l-90 -333l87 25l-18 -66l-86 -25l-97 -360h-67l91 340l-84 -24z" />
    <glyph glyph-name="OE" unicode="&#x152;" horiz-adv-x="1185" 
d="M461 0q-89 0 -162 24.5t-122 73.5q-38 38 -58.5 89.5t-20.5 118.5q0 84 29 155.5t85 127.5q66 66 161.5 102.5t210.5 36.5h664l-17 -64h-435l-71 -265h388l-17 -64h-388l-73 -271h440l-17 -64h-597zM234 142q38 -38 97 -58t134 -20h100l161 600h-151q-95 0 -174 -31
t-137 -88q-45 -46 -69.5 -105.5t-24.5 -129.5q0 -54 17 -96t47 -72z" />
    <glyph glyph-name="oe" unicode="&#x153;" horiz-adv-x="1099" 
d="M603 244q-1 -8 -1 -14v-14q0 -77 46 -123.5t123 -46.5q56 0 95.5 18.5t77.5 48.5l36 -45q-41 -34 -92 -57t-117 -23q-84 0 -141.5 41.5t-76.5 110.5q-20 -31 -45.5 -58.5t-58 -48.5t-70.5 -33t-82 -12q-53 0 -97 18t-75.5 49.5t-49 75t-17.5 95.5q0 64 25.5 122.5
t70.5 103.5q44 43 100.5 69t119.5 26q45 0 81 -12.5t63.5 -34.5t46 -51.5t27.5 -62.5q18 32 42.5 61t56 51.5t69.5 35.5t84 13q51 0 89 -16.5t63.5 -44.5t38.5 -65t13 -79q0 -56 -16 -98h-429zM304 48q46 0 87.5 20t73.5 52q37 36 58.5 84.5t21.5 101.5q0 86 -49 133
t-128 47q-45 0 -87 -19.5t-74 -51.5q-37 -37 -58 -85.5t-21 -101.5q0 -43 13 -76.5t36 -56.5t55.5 -35t71.5 -12zM685 421q-51 -53 -71 -123h364q2 7 3 17.5t1 24.5q0 30 -8.5 57t-25.5 47t-44 32t-63 12q-46 0 -85.5 -18.5t-70.5 -48.5z" />
    <glyph glyph-name="Scaron" unicode="&#x160;" horiz-adv-x="675" 
d="M316 -10q-100 0 -173.5 36.5t-120.5 101.5l54 41q46 -58 104 -87.5t142 -29.5q42 0 77.5 11t61.5 30.5t41 46.5t15 59q0 22 -8 40t-26 34.5t-47.5 32t-72.5 32.5q-53 21 -91 41t-63 42.5t-37 49t-12 61.5t13.5 68.5t40.5 60.5q37 37 90 57t121 20q84 0 149 -31t107 -79
l-52 -45q-41 45 -92.5 69t-117.5 24q-44 0 -78.5 -11.5t-58.5 -30.5t-37 -43.5t-13 -51.5q0 -24 9.5 -42.5t30 -35t52 -31.5t75.5 -32q97 -37 144 -80t47 -112q0 -40 -15.5 -74.5t-43.5 -62.5q-38 -38 -93 -58.5t-122 -20.5zM507 804h-63l-80 118h62l59 -63l95 63h69z" />
    <glyph glyph-name="scaron" unicode="&#x161;" horiz-adv-x="528" 
d="M229 751h56l55 -70l100 70h62l-144 -132h-57zM232 -12q-63 0 -123 23.5t-106 69.5l45 45q44 -42 92 -61t99 -19q24 0 46.5 7t40 19.5t28.5 30.5t11 40q0 28 -22 50.5t-85 46.5q-75 28 -113 59.5t-38 86.5q0 33 14 62t40 51t63 34.5t83 12.5q59 0 110.5 -21.5t85.5 -50.5
l-41 -48q-32 26 -74 44t-87 18q-30 0 -53.5 -7.5t-39.5 -20.5t-24.5 -29t-8.5 -34q0 -14 5 -26t17.5 -23.5t34.5 -23t56 -24.5q76 -30 111 -63t35 -83q0 -36 -16 -66.5t-43.5 -52.5t-64 -34.5t-78.5 -12.5z" />
    <glyph glyph-name="Ydieresis" unicode="&#x178;" horiz-adv-x="704" 
d="M318 294l-184 434h77l155 -378l359 378h91l-432 -448l-75 -280h-70zM362 878h88l-24 -87h-88zM552 878h87l-24 -87h-87z" />
    <glyph glyph-name="Zcaron" unicode="&#x17d;" horiz-adv-x="705" 
d="M509 794h-63l-80 118h62l59 -63l95 63h69zM-2 44l639 621h-456l18 63h559l-12 -44l-639 -621h476l-17 -63h-580z" />
    <glyph glyph-name="zcaron" unicode="&#x17e;" horiz-adv-x="582" 
d="M247 751h56l55 -70l100 70h62l-144 -132h-57zM-2 41l475 435h-345l16 58h446l-12 -41l-475 -435h362l-16 -58h-462z" />
    <glyph glyph-name="circumflex" unicode="&#x2c6;" 
d="M368 751h58l72 -132h-56l-56 70l-100 -70h-61z" />
    <glyph glyph-name="caron" unicode="&#x2c7;" 
d="M259 751h56l55 -70l100 70h62l-144 -132h-57z" />
    <glyph glyph-name="breve" unicode="&#x2d8;" 
d="M362 617q-65 0 -96.5 33.5t-21.5 90.5h50q-1 -31 16.5 -48.5t60.5 -17.5q42 0 69 18.5t44 47.5h54q-20 -57 -67 -90.5t-109 -33.5z" />
    <glyph glyph-name="dotaccent" unicode="&#x2d9;" 
d="M345 713h81l-26 -96h-81z" />
    <glyph glyph-name="ring" unicode="&#x2da;" 
d="M505 733q0 -24 -10.5 -45t-27.5 -36.5t-39.5 -25t-47.5 -9.5q-47 0 -76 27.5t-29 69.5q0 24 10 45t27 36.5t39.5 25t47.5 9.5q48 0 77 -27.5t29 -69.5zM316 716q0 -27 17 -45t48 -18q17 0 32 6t26.5 16.5t18 25t6.5 30.5q0 27 -17.5 45t-48.5 18q-17 0 -31.5 -6
t-26 -16.5t-18 -25t-6.5 -30.5z" />
    <glyph glyph-name="ogonek" unicode="&#x2db;" 
d="M230 -171h-9q-112 6 -112 69q0 33 29.5 62t73.5 57l42 -15q-81 -54 -81 -92q0 -17 16 -25.5t51 -12.5z" />
    <glyph glyph-name="tilde" unicode="&#x2dc;" 
d="M544 722q-13 -29 -25 -48.5t-25 -31.5t-27.5 -17.5t-32.5 -5.5q-17 0 -33.5 6.5t-35.5 15.5q-16 8 -31 14t-28 6q-20 0 -33 -11.5t-29 -40.5l-44 12q26 58 50.5 81t59.5 23q17 0 34 -7t35 -15q16 -8 31.5 -14t27.5 -6q20 0 33 11t30 40z" />
    <glyph glyph-name="hungarumlaut" unicode="&#x2dd;" 
d="M330 764l59 -35l-139 -110h-55zM495 764l59 -35l-139 -110h-55z" />
    <glyph glyph-name="endash" unicode="&#x2013;" horiz-adv-x="562" 
d="M97 345h409l-18 -68h-410z" />
    <glyph glyph-name="emdash" unicode="&#x2014;" horiz-adv-x="946" 
d="M97 345h794l-18 -68h-795z" />
    <glyph glyph-name="quoteleft" unicode="&#x2018;" horiz-adv-x="266" 
d="M174 600q8 31 19.5 53t28 37.5t38.5 25.5t51 16l8 -31q-43 -12 -64.5 -34t-26.5 -54h33l-27 -100h-84z" />
    <glyph glyph-name="quoteright" unicode="&#x2019;" horiz-adv-x="266" 
d="M125 540q42 12 63.5 34t27.5 54h-34l27 100h84l-23 -86q-9 -31 -20.5 -53.5t-28 -38t-38 -25.5t-50.5 -16z" />
    <glyph glyph-name="quotesinglbase" unicode="&#x201a;" horiz-adv-x="266" 
d="M-38 -88q42 12 63.5 34t27.5 54h-34l28 100h83l-23 -86q-9 -31 -20.5 -53.5t-28 -38t-38 -25.5t-50.5 -16z" />
    <glyph glyph-name="quotedblleft" unicode="&#x201c;" horiz-adv-x="465" 
d="M173 600q8 31 19.5 53t28 37.5t38.5 25.5t51 16l8 -31q-42 -12 -63.5 -34t-27.5 -54h33l-27 -100h-83zM372 600q8 31 19.5 53t28 37.5t38.5 25.5t51 16l8 -31q-43 -12 -64.5 -34t-26.5 -54h33l-27 -100h-84z" />
    <glyph glyph-name="quotedblright" unicode="&#x201d;" horiz-adv-x="465" 
d="M124 540q42 12 64 34t27 54h-33l27 100h83l-23 -86q-9 -31 -20.5 -53.5t-28 -38t-38 -25.5t-50.5 -16zM323 540q42 12 63.5 34t27.5 54h-34l27 100h84l-23 -86q-9 -31 -20.5 -53.5t-28 -38t-38 -25.5t-50.5 -16z" />
    <glyph glyph-name="quotedblbase" unicode="&#x201e;" horiz-adv-x="466" 
d="M-38 -88q42 12 63.5 34t27.5 54h-34l28 100h83l-23 -86q-9 -31 -20.5 -53.5t-28 -38t-38 -25.5t-50.5 -16zM162 -88q42 12 63.5 34t27.5 54h-34l27 100h84l-24 -86q-9 -31 -20.5 -53.5t-28 -38t-38 -25.5t-50.5 -16z" />
    <glyph glyph-name="bullet" unicode="&#x2022;" horiz-adv-x="505" 
d="M291 505q49 0 80 -30.5t31 -83.5q0 -35 -13 -65.5t-36 -52.5q-21 -22 -47.5 -34t-56.5 -12q-49 0 -79.5 31t-30.5 84q0 34 13 64.5t36 53.5q21 21 47.5 33t55.5 12z" />
    <glyph glyph-name="ellipsis" unicode="&#x2026;" horiz-adv-x="752" 
d="M46 99h83l-27 -99h-83zM290 99h83l-27 -99h-83zM533 99h83l-27 -99h-83z" />
    <glyph glyph-name="guilsinglleft" unicode="&#x2039;" horiz-adv-x="345" 
d="M53 262l2 8l230 221l43 -37l-195 -197l84 -187l-54 -28z" />
    <glyph glyph-name="guilsinglright" unicode="&#x203a;" horiz-adv-x="345" 
d="M291 271l-2 -8l-230 -221l-43 37l195 197l-84 188l54 27z" />
    <glyph glyph-name="Euro" unicode="&#x20ac;" horiz-adv-x="729" 
d="M105 486h75q18 44 43 82.5t57 69.5q47 48 107 75t132 27q47 0 85 -12.5t67 -35t49 -53t32 -65.5l-60 -26q-13 30 -29 53.5t-37.5 40.5t-50 26t-65.5 9q-51 0 -95 -20.5t-82 -58.5q-50 -48 -78 -112h298l-16 -58h-303q-9 -29 -14.5 -58.5t-7.5 -60.5h294l-16 -59h-278
q3 -45 16.5 -81.5t37.5 -62.5t57 -40.5t75 -14.5q64 0 111 25.5t89 71.5l47 -40q-23 -27 -49 -49t-56.5 -37.5t-65.5 -24.5t-77 -9q-54 0 -99.5 18t-79.5 51.5t-54.5 82t-23.5 110.5h-98l16 59h82q4 60 21 119h-72z" />
    <glyph glyph-name="trademark" unicode="&#x2122;" horiz-adv-x="731" 
d="M243 688h-104l12 40h249l-12 -40h-103l-79 -280h-42zM472 728h39l71 -182l167 182h48l-91 -320h-41l71 250l-166 -179h-6l-70 179l-72 -250h-41z" />
    <glyph glyph-name="hcoslug" horiz-adv-x="694" 
d="M273 18q2 22 -19 22q-9 0 -14.5 -5.5t-5.5 -15.5q1 -20 21 -20q15 0 18 14h-7q-2 -7 -9 -7q-10 0 -10 12h26zM254 35q7 0 7 -12h-14q0 12 7 12zM195 78q-8 0 -8 16q0 15 8 15t8 -15q0 -16 -8 -16zM210 4q-8 0 -8 16q0 15 8 15t8 -15q0 -16 -8 -16zM210 -1q9 0 15 6t6 15
t-6 14.5t-15 5.5t-15 -5.5t-6 -14.5q0 -10 6 -15.5t15 -5.5zM546 4q-8 0 -8 16q0 15 8 15t8 -15q0 -16 -8 -16zM546 -1q9 0 15 6t6 15t-6 14.5t-15 5.5t-15 -5.5t-6 -14.5q0 -10 6 -15.5t15 -5.5zM125 74h30v7h-10v16h4q5 0 6 -8h7v23h-7q-1 -8 -6 -8h-4v18h12q5 0 7 -2.5
t4 -10.5h8v20h-51v-7h7v-41h-7v-7zM195 73q9 0 15 6t6 15t-6 14.5t-15 5.5t-15 -5.5t-6 -14.5q0 -10 6 -15.5t15 -5.5zM644 -100h-594v800h594v-800zM498 -1q22 0 24 23h-8q-2 -16 -14 -16q-16 0 -16 22t14 22q10 0 15 -16h8v22h-8l-1 -6q-7 7 -16 7q-11 0 -19 -8t-8 -22
q0 -28 29 -28zM372 80q-8 0 -8 13t8 13q7 0 7 -13t-7 -13zM276 0h23v7h-5v25h14v-25h-5v-7h23v7h-6v52l-10 -2q-4 2 -9 2q-8 0 -13.5 -4.5t-5.5 -14.5v-1h-7v-7h7v-25h-6v-7zM368 0h26v7h-8v16q4 9 7 9v-1q0 -6 6 -6q7 0 7 7q0 8 -8 8t-12 -11v10h-18v-7h6v-25h-6v-7z
M352 73h6l4 8q5 -8 14 -8t12.5 7t3.5 14q0 20 -15 20q-10 0 -13 -9v27h-18v-7h6v-52zM400 75q-7 0 -7 -7q0 -9 11 -9q12 0 18 16l13 31h5v7h-17v-7h5l-8 -20l-9 20h6v7h-25v-7h5q2 -5 6 -13l6 -11l4 -9q-2 -8 -8 -8q2 2 1 6t-6 4zM247 428q0 13 7.5 21t19.5 8q13 0 21 -10.5
t8 -27.5q0 -13 -5 -25t-13 -25q-17 17 -27.5 29.5t-10.5 29.5zM302 74h7l1 4q2 -2 5 -3.5t8 -1.5q14 0 14 13q0 6 -4 8.5t-8.5 3.5t-8 2t-3.5 4q0 4 5 4t10 -7h7v13h-6l-2 -5q-3 5 -11 5q-7 0 -10.5 -3.5t-3.5 -8.5q0 -6 3.5 -8.5t8 -4t8.5 -2.5t4 -4q0 -4 -5 -4q-6 0 -12 9
h-7v-14zM261 219q-23 0 -37.5 15.5t-14.5 38.5q0 24 16 40q14 -13 33.5 -34.5t40.5 -47.5q-15 -12 -38 -12zM274 122v-9h-7v-7h7v-20q0 -13 12 -13q11 0 14 13l-5 2q-1 -7 -5 -7t-4 5v20h13v7h-13v11zM428 306q7 -11 18 -18t25 -7q21 0 35.5 15.5t14.5 38.5t-14.5 37.5
t-35.5 14.5q-35 0 -60 -38q-2 20 -15.5 29t-33.5 8q9 15 9 34q0 13 -6 26.5t-18 24t-30 17t-41 6.5q-25 0 -45 -7t-34.5 -19t-22 -27.5t-7.5 -31.5q0 -22 7.5 -37t23.5 -32q-82 -28 -82 -91q0 -20 8.5 -37t23.5 -29.5t34.5 -19.5t42.5 -7q63 0 104 45q25 -26 43.5 -35.5
t41.5 -9.5q32 0 55 25t25 69l-7 2q-8 -13 -17.5 -21t-25.5 -8q-15 0 -29 9.5t-33 31.5q11 15 23 25t23 17zM219 74h22v7h-4v15q0 10 7 10q6 0 6 -7v-18h-4v-7h22v7h-6v19q0 14 -12 14q-9 0 -14 -11v10h-17v-7h6v-25h-6v-7zM446 33v-7h6q-2 -5 -6 -9q-3 3 -5.5 6t-6.5 7
q11 5 11 12q0 5 -3.5 8.5t-10.5 3.5q-8 0 -12.5 -4t-4.5 -10t6 -12q-13 -4 -13 -15q0 -14 18 -14q9 0 15 6q5 -6 12 -6q10 0 13 12l-5 1q-1 -5 -4 -5t-6 5q3 3 5 6t4 8h5v7h-18zM429 6q-10 0 -10 10q0 5 4 9q4 -4 7 -7.5t7 -8.5q-4 -3 -8 -3zM294 42q0 7 1.5 9.5t4.5 2.5
q2 0 3 -1q-1 -2 -1 -4q0 -5 6 -5v-5h-14v3zM425 43q0 5 5 5q6 0 6 -6t-5 -9q-6 6 -6 10zM312 342q30 20 42 34q17 -17 15 -36t-16 -44q-10 11 -19.5 22.5t-21.5 23.5zM366 18q2 22 -19 22q-8 0 -14 -6t-6 -15q0 -20 21 -20q14 0 18 14h-7q-1 -7 -9 -7q-10 0 -10 12h26z
M347 35q7 0 7 -12h-14q0 12 7 12zM124 0h29v7h-8v18h22v-18h-8v-7h29v7h-8v41h8v7h-29v-7h8v-16h-22v16h8v7h-29v-7h8v-41h-8v-7zM576 13q-7 0 -7 -7t7 -7t7 7t-7 7z" />
    <glyph glyph-name="acute.cap" 
d="M469 923l73 -34l-142 -95h-67z" />
    <glyph glyph-name="hungarumlaut.cap" 
d="M377 923l72 -34l-141 -95h-66zM531 923l72 -34l-141 -95h-66z" />
    <glyph glyph-name="caron.alt.cap" 
d="M375 770h72v-3l-95 -161h-35z" />
    <glyph glyph-name="grave.cap" 
d="M333 889l72 34l67 -129h-49z" />
    <glyph glyph-name="circumflex.cap" 
d="M407 912h63l80 -118h-62l-60 63l-94 -63h-70z" />
    <glyph glyph-name="caron.cap" 
d="M439 794h-63l-80 118h62l59 -63l95 63h69z" />
    <glyph glyph-name="breve.cap" 
d="M406 792q-62 0 -94.5 29t-22.5 83h52q2 -26 19 -40t59 -14q38 0 64.5 14t41.5 40h58q-18 -54 -66.5 -83t-110.5 -29z" />
    <glyph glyph-name="tilde.cap" 
d="M245 798q24 52 49 75.5t58 23.5q17 0 34.5 -6.5t34.5 -14.5q17 -7 32.5 -13t28.5 -6q20 0 32.5 11t28.5 37l45 -13q-25 -53 -49.5 -75.5t-58.5 -22.5q-17 0 -34.5 6.5t-34.5 13.5q-17 8 -32 14t-28 6q-20 0 -32.5 -11.5t-29.5 -37.5z" />
    <glyph glyph-name="macron.cap" 
d="M264 878h333l-16 -60h-333z" />
    <glyph glyph-name="dieresis.cap" 
d="M292 881h88l-24 -87h-88zM482 881h87l-24 -87h-87z" />
    <glyph glyph-name="dotaccent.cap" 
d="M386 881h90l-24 -87h-90z" />
    <glyph glyph-name="ring.cap" 
d="M422 994q44 0 72 -25t28 -63q0 -24 -10.5 -45t-28 -36.5t-40.5 -24t-49 -8.5q-45 0 -73 25t-28 63q0 24 10.5 45t28 36.5t41 24t49.5 8.5zM398 828q32 0 56 21t24 53q0 23 -15.5 39.5t-44.5 16.5q-16 0 -30.5 -5.5t-26 -15.5t-18 -23.5t-6.5 -29.5q0 -26 17 -41t44 -15z
" />
    <glyph glyph-name="commaaccent.cap" 
d="M72 -216q35 6 52.5 20t24.5 41h-38l22 80h85l-19 -70q-14 -51 -44.5 -73t-83.5 -26z" />
    <glyph glyph-name="cedilla.cap" 
d="M75 -127l130 137h55l-125 -168z" />
    <glyph glyph-name="ogonek.cap" 
d="M230 -171h-9q-112 6 -112 69q0 33 29.5 62t73.5 57l42 -15q-81 -54 -81 -92q0 -17 16 -25.5t51 -12.5z" />
    </font>
</defs>
</svg>
